CossetteTexte-Bold.ufo
<glyph name="quotedbl" format="2">
  <advance width="480"/>
  <unicode hex="0022"/>
  <outline>
    <contour>
      <point x="70" y="500" type="line"/>
      <point x="200" y="500" type="line"/>
      <point x="210" y="800" type="line"/>
      <point x="60" y="800" type="line"/>
    </contour>
    <contour>
      <point x="280" y="500" type="line"/>
      <point x="410" y="500" type="line"/>
      <point x="420" y="800" type="line"/>
      <point x="270" y="800" type="line"/>
    </contour>
  </outline>
</glyph>
<glyph name="ampersand" format="2">
  <advance width="760"/>
  <unicode hex="0026"/>
  <outline>
    <contour>
      <point x="740" y="0" type="line"/>
      <point x="400" y="400" type="line" smooth="yes"/>
      <point x="315" y="500"/>
      <point x="265" y="555"/>
      <point x="265" y="600" type="curve" smooth="yes"/>
      <point x="265" y="645"/>
      <point x="297" y="670"/>
      <point x="345" y="670" type="curve" smooth="yes"/>
      <point x="393" y="670"/>
      <point x="425" y="645"/>
      <point x="425" y="600" type="curve" smooth="yes"/>
      <point x="425" y="555"/>
      <point x="386" y="519"/>
      <point x="283" y="480" type="curve" smooth="yes"/>
      <point x="158" y="432"/>
      <point x="60" y="352"/>
      <point x="60" y="220" type="curve" smooth="yes"/>
      <point x="60" y="88"/>
      <point x="170" y="-10"/>
      <point x="330" y="-10" type="curve" smooth="yes"/>
      <point x="530" y="-10"/>
      <point x="700" y="160"/>
      <point x="700" y="400" type="curve"/>
      <point x="550" y="400" type="line"/>
      <point x="550" y="250"/>
      <point x="470" y="140"/>
      <point x="330" y="140" type="curve" smooth="yes"/>
      <point x="250" y="140"/>
      <point x="210" y="180"/>
      <point x="210" y="240" type="curve" smooth="yes"/>
      <point x="210" y="300"/>
      <point x="256" y="340"/>
      <point x="361" y="380" type="curve" smooth="yes"/>
      <point x="483" y="427"/>
      <point x="570" y="510"/>
      <point x="570" y="620" type="curve" smooth="yes"/>
      <point x="570" y="720"/>
      <point x="482" y="810"/>
      <point x="345" y="810" type="curve" smooth="yes"/>
      <point x="208" y="810"/>
      <point x="120" y="720"/>
      <point x="120" y="620" type="curve" smooth="yes"/>
      <point x="120" y="510"/>
      <point x="185" y="440"/>
      <point x="270" y="340" type="curve" smooth="yes"/>
      <point x="559" y="0" type="line"/>
    </contour>
  </outline>
</glyph>
<glyph name="parenleft" format="2">
  <advance width="400"/>
  <unicode hex="0028"/>
  <outline>
    <contour>
      <point x="250" y="-200" type="curve"/>
      <point x="390.0" y="-200.0" type="line"/>
      <point x="290" y="-33"/>
      <point x="240" y="133"/>
      <point x="240" y="300" type="curve" smooth="yes"/>
      <point x="240" y="467"/>
      <point x="290" y="633"/>
      <point x="390.0" y="800.0" type="curve"/>
      <point x="250" y="800" type="line"/>
      <point x="150" y="633"/>
      <point x="100" y="467"/>
      <point x="100" y="300" type="curve" smooth="yes"/>
      <point x="100" y="133"/>
      <point x="150" y="-33"/>
    </contour>
  </outline>
</glyph>
<glyph name="plus" format="2">
  <advance width="600"/>
  <unicode hex="002B"/>
  <outline>
    <contour>
      <point x="540" y="425" type="line"/>
      <point x="60" y="425" type="line"/>
      <point x="60" y="275" type="line"/>
      <point x="540" y="275" type="line"/>
    </contour>
    <contour>
      <point x="240" y="100" type="line"/>
      <point x="360" y="100" type="line"/>
      <point x="360" y="600" type="line"/>
      <point x="240" y="600" type="line"/>
    </contour>
  </outline>
</glyph>
<glyph name="comma" format="2">
  <advance width="270"/>
  <unicode hex="002C"/>
  <outline>
    <contour>
      <point x="60" y="0" type="line"/>
      <point x="130" y="0" type="line"/>
      <point x="130" y="-20" type="line" smooth="yes"/>
      <point x="130" y="-70"/>
      <point x="110" y="-100"/>
      <point x="60" y="-100" type="curve"/>
      <point x="60" y="-180" type="line"/>
      <point x="160" y="-180"/>
      <point x="210" y="-120"/>
      <point x="210" y="-20" type="curve" smooth="yes"/>
      <point x="210" y="160" type="line"/>
      <point x="60" y="160" type="line"/>
    </contour>
  </outline>
</glyph>
<glyph name="slash" format="2">
  <advance width="420"/>
  <unicode hex="002F"/>
  <outline>
    <contour>
      <point x="10" y="0" type="line"/>
      <point x="150" y="0" type="line"/>
      <point x="410" y="800" type="line"/>
      <point x="270" y="800" type="line"/>
    </contour>
  </outline>
</glyph>
<glyph name="zero" format="2">
  <advance width="620"/>
  <unicode hex="0030"/>
  <outline>
    <contour>
      <point x="45" y="400" type="curve" smooth="yes"/>
      <point x="45" y="144"/>
      <point x="140" y="-10"/>
      <point x="310" y="-10" type="curve" smooth="yes"/>
      <point x="480" y="-10"/>
      <point x="575" y="144"/>
      <point x="575" y="400" type="curve" smooth="yes"/>
      <point x="575" y="656"/>
      <point x="480" y="810"/>
      <point x="310" y="810" type="curve" smooth="yes"/>
      <point x="140" y="810"/>
      <point x="45" y="656"/>
    </contour>
    <contour>
      <point x="190" y="400" type="curve" smooth="yes"/>
      <point x="190" y="553"/>
      <point x="230" y="645"/>
      <point x="310" y="645" type="curve" smooth="yes"/>
      <point x="390" y="645"/>
      <point x="430" y="553"/>
      <point x="430" y="400" type="curve" smooth="yes"/>
      <point x="430" y="247"/>
      <point x="390" y="155"/>
      <point x="310" y="155" type="curve" smooth="yes"/>
      <point x="230" y="155"/>
      <point x="190" y="247"/>
    </contour>
  </outline>
</glyph>
<glyph name="one" format="2">
  <advance width="420"/>
  <unicode hex="0031"/>
  <outline>
    <contour>
      <point x="170" y="0" type="line"/>
      <point x="320" y="0" type="line"/>
      <point x="320" y="800" type="line"/>
      <point x="185" y="800" type="line"/>
      <point x="185" y="700"/>
      <point x="135" y="650"/>
      <point x="35" y="650" type="curve"/>
      <point x="35" y="520" type="line"/>
      <point x="170" y="520" type="line"/>
    </contour>
  </outline>
</glyph>
<glyph name="seven" format="2">
  <advance width="550"/>
  <unicode hex="0037"/>
  <outline>
    <contour>
      <point x="150" y="0" type="curve"/>
      <point x="310" y="0" type="line"/>
      <point x="310" y="240"/>
      <point x="360" y="460"/>
      <point x="510" y="640" type="curve"/>
      <point x="510" y="800" type="line"/>
      <point x="40" y="800" type="line"/>
      <point x="40" y="640" type="line"/>
      <point x="430" y="640" type="line"/>
      <point x="360" y="640" type="line"/>
      <point x="210" y="460"/>
      <point x="150" y="240"/>
    </contour>
  </outline>
</glyph>
<glyph name="colon" format="2">
  <advance width="270"/>
  <unicode hex="003A"/>
  <outline>
    <contour>
      <point x="60" y="0" type="line"/>
      <point x="210" y="0" type="line"/>
      <point x="210" y="160" type="line"/>
      <point x="60" y="160" type="line"/>
    </contour>
    <contour>
      <point x="60" y="440" type="line"/>
      <point x="210" y="440" type="line"/>
      <point x="210" y="600" type="line"/>
      <point x="60" y="600" type="line"/>
    </contour>
  </outline>
</glyph>
<glyph name="equal" format="2">
  <advance width="600"/>
  <unicode hex="003D"/>
  <outline>
    <contour>
      <point x="530" y="550" type="line"/>
      <point x="70" y="550" type="line"/>
      <point x="70" y="410" type="line"/>
      <point x="530" y="410" type="line"/>
    </contour>
    <contour>
      <point x="530" y="290" type="line"/>
      <point x="70" y="290" type="line"/>
      <point x="70" y="150" type="line"/>
      <point x="530" y="150" type="line"/>
    </contour>
  </outline>
</glyph>
<glyph name="greater" format="2">
  <advance width="600"/>
  <unicode hex="003E"/>
  <outline>
    <contour>
      <point x="80" y="610" type="line"/>
      <point x="80" y="458" type="line"/>
      <point x="520" y="308" type="line"/>
      <point x="520" y="450" type="line"/>
    </contour>
    <contour>
      <point x="80" y="238" type="line"/>
      <point x="80" y="90" type="line"/>
      <point x="520" y="250" type="line"/>
      <point x="520" y="388" type="line"/>
    </contour>
  </outline>
</glyph>
<glyph name="question" format="2">
  <advance width="540"/>
  <unicode hex="003F"/>
  <outline>
    <contour>
      <point x="185" y="290" type="curve" smooth="yes"/>
      <point x="185" y="240" type="line"/>
      <point x="325" y="240" type="line"/>
      <point x="325" y="280" type="line" smooth="yes"/>
      <point x="325" y="380"/>
      <point x="500" y="400"/>
      <point x="500" y="580" type="curve" smooth="yes"/>
      <point x="500" y="700"/>
      <point x="427" y="810"/>
      <point x="265" y="810" type="curve" smooth="yes"/>
      <point x="108" y="810"/>
      <point x="30" y="700"/>
      <point x="30" y="560" type="curve" smooth="yes"/>
      <point x="30" y="540" type="line"/>
      <point x="175" y="540" type="line"/>
      <point x="175" y="560" type="line" smooth="yes"/>
      <point x="175" y="623"/>
      <point x="215" y="655"/>
      <point x="265" y="655" type="curve" smooth="yes"/>
      <point x="320" y="655"/>
      <point x="355" y="623"/>
      <point x="355" y="570" type="curve" smooth="yes"/>
      <point x="355" y="470"/>
      <point x="185" y="470"/>
    </contour>
    <contour>
      <point x="180" y="0" type="line"/>
      <point x="330" y="0" type="line"/>
      <point x="330" y="160" type="line"/>
      <point x="180" y="160" type="line"/>
    </contour>
  </outline>
</glyph>
<glyph name="A" format="2">
  <advance width="674"/>
  <unicode hex="0041"/>
  <anchor x="337.0" y="800" name="top"/>
  <anchor x="667.0" y="0" name="ogonek"/>
  <outline>
    <contour>
      <point x="192.0" y="160.0" type="line"/>
      <point x="484.0" y="160.0" type="line"/>
      <point x="484.0" y="320.0" type="line"/>
      <point x="192.0" y="320.0" type="line"/>
    </contour>
    <contour>
      <point x="7.0" y="0.0" type="line"/>
      <point x="163.0" y="0.0" type="line"/>
      <point x="311.0" y="560.0" type="line"/>
      <point x="331.0" y="640.0" type="line"/>
      <point x="341.0" y="640.0" type="line"/>
      <point x="361.0" y="560.0" type="line"/>
      <point x="509.0" y="0.0" type="line"/>
      <point x="667.0" y="0.0" type="line"/>
      <point x="447.0" y="800.0" type="line"/>
      <point x="227.0" y="800.0" type="line"/>
    </contour>
  </outline>
</glyph>
<glyph name="B" format="2">
  <advance width="634"/>
  <unicode hex="0042"/>
  <outline>
    <contour>
      <point x="217" y="480" type="line"/>
      <point x="217" y="640" type="line"/>
      <point x="327" y="640" type="line" smooth="yes"/>
      <point x="407" y="640"/>
      <point x="447" y="613"/>
      <point x="447" y="560" type="curve" smooth="yes"/>
      <point x="447" y="507"/>
      <point x="407" y="480"/>
      <point x="327" y="480" type="curve" smooth="yes"/>
    </contour>
    <contour>
      <point x="217" y="340" type="line"/>
      <point x="327" y="340" type="line" smooth="yes"/>
      <point x="412" y="340"/>
      <point x="457" y="310"/>
      <point x="457" y="250" type="curve" smooth="yes"/>
      <point x="457" y="190"/>
      <point x="412" y="160"/>
      <point x="327" y="160" type="curve" smooth="yes"/>
      <point x="217" y="160" type="line"/>
    </contour>
    <contour>
      <point x="327" y="370" type="line"/>
      <point x="502" y="370"/>
      <point x="592" y="450"/>
      <point x="592" y="580" type="curve" smooth="yes"/>
      <point x="592" y="720"/>
      <point x="502" y="800"/>
      <point x="327" y="800" type="curve" smooth="yes"/>
      <point x="67" y="800" type="line"/>
      <point x="67" y="0" type="line"/>
      <point x="327" y="0" type="line" smooth="yes"/>
      <point x="509" y="0"/>
      <point x="602" y="80"/>
      <point x="602" y="230" type="curve" smooth="yes"/>
      <point x="602" y="370"/>
      <point x="509" y="450"/>
      <point x="327" y="450" type="curve"/>
    </contour>
  </outline>
</glyph>
<glyph name="C" format="2">
  <advance width="654"/>
  <unicode hex="0043"/>
  <anchor x="337.0" y="0" name="bottom"/>
  <anchor x="337.0" y="800" name="top"/>
  <outline>
    <contour>
      <point x="337.0" y="155.0" type="curve" smooth="yes"/>
      <point x="240.0" y="155.0"/>
      <point x="182.0" y="247.0"/>
      <point x="182.0" y="400.0" type="curve" smooth="yes"/>
      <point x="182.0" y="553.0"/>
      <point x="240.0" y="645.0"/>
      <point x="337.0" y="645.0" type="curve" smooth="yes"/>
      <point x="407.0" y="645.0"/>
      <point x="457.0" y="600.0"/>
      <point x="477.0" y="520.0" type="curve"/>
      <point x="627.0" y="520.0" type="line"/>
      <point x="597.0" y="700.0"/>
      <point x="493.0" y="810.0"/>
      <point x="337.0" y="810.0" type="curve" smooth="yes"/>
      <point x="149.0" y="810.0"/>
      <point x="37.0" y="656.0"/>
      <point x="37.0" y="400.0" type="curve" smooth="yes"/>
      <point x="37.0" y="144.0"/>
      <point x="149.0" y="-10.0"/>
      <point x="337.0" y="-10.0" type="curve" smooth="yes"/>
      <point x="493.0" y="-10.0"/>
      <point x="597.0" y="100.0"/>
      <point x="627.0" y="280.0" type="curve"/>
      <point x="477.0" y="280.0" type="line"/>
      <point x="457.0" y="200.0"/>
      <point x="407.0" y="155.0"/>
    </contour>
  </outline>
</glyph>
<glyph name="D" format="2">
  <advance width="679"/>
  <unicode hex="0044"/>
  <anchor x="297.0" y="800" name="top"/>
  <outline>
    <contour>
      <point x="67.0" y="0.0" type="line"/>
      <point x="327.0" y="0.0" type="line" smooth="yes"/>
      <point x="527.0" y="0.0"/>
      <point x="642.0" y="144.0"/>
      <point x="642.0" y="400.0" type="curve" smooth="yes"/>
      <point x="642.0" y="656.0"/>
      <point x="527.0" y="800.0"/>
      <point x="327.0" y="800.0" type="curve" smooth="yes"/>
      <point x="67.0" y="800.0" type="line"/>
    </contour>
    <contour>
      <point x="327.0" y="640.0" type="line" smooth="yes"/>
      <point x="432.0" y="640.0"/>
      <point x="497.0" y="550.0"/>
      <point x="497.0" y="400.0" type="curve" smooth="yes"/>
      <point x="497.0" y="250.0"/>
      <point x="432.0" y="160.0"/>
      <point x="327.0" y="160.0" type="curve" smooth="yes"/>
      <point x="217.0" y="160.0" type="line"/>
      <point x="217.0" y="640.0" type="line"/>
    </contour>
  </outline>
</glyph>
<glyph name="E" format="2">
  <advance width="579"/>
  <unicode hex="0045"/>
  <anchor x="307.0" y="800" name="top"/>
  <anchor x="547.0" y="0" name="ogonek"/>
  <outline>
    <contour>
      <point x="67.0" y="0.0" type="line"/>
      <point x="547.0" y="0.0" type="line"/>
      <point x="547.0" y="160.0" type="line"/>
      <point x="217.0" y="160.0" type="line"/>
      <point x="217.0" y="324.0" type="line"/>
      <point x="511.0" y="324.0" type="line"/>
      <point x="511.0" y="484.0" type="line"/>
      <point x="217.0" y="484.0" type="line"/>
      <point x="217.0" y="640.0" type="line"/>
      <point x="535.0" y="640.0" type="line"/>
      <point x="535.0" y="800.0" type="line"/>
      <point x="67.0" y="800.0" type="line"/>
    </contour>
  </outline>
</glyph>
<glyph name="F" format="2">
  <advance width="559"/>
  <unicode hex="0046"/>
  <outline>
    <contour>
      <point x="67.0" y="0.0" type="line"/>
      <point x="217.0" y="0.0" type="line"/>
      <point x="217.0" y="300.0" type="line"/>
      <point x="507.0" y="300.0" type="line"/>
      <point x="507.0" y="460.0" type="line"/>
      <point x="217.0" y="460.0" type="line"/>
      <point x="217.0" y="640.0" type="line"/>
      <point x="527.0" y="640.0" type="line"/>
      <point x="527.0" y="800.0" type="line"/>
      <point x="67.0" y="800.0" type="line"/>
    </contour>
  </outline>
</glyph>
<glyph name="G" format="2">
  <advance width="674"/>
  <unicode hex="0047"/>
  <anchor x="347.0" y="800" name="top"/>
  <anchor x="347.0" y="0" name="bottom"/>
  <outline>
    <contour>
      <point x="347.0" y="-10.0" type="curve" smooth="yes"/>
      <point x="541.0" y="-10.0"/>
      <point x="637.0" y="144.0"/>
      <point x="637.0" y="340.0" type="curve" smooth="yes"/>
      <point x="637.0" y="440.0" type="line"/>
      <point x="347.0" y="440.0" type="line"/>
      <point x="347.0" y="280.0" type="line"/>
      <point x="597.0" y="280.0" type="line"/>
      <point x="487.0" y="340.0" type="line"/>
      <point x="487.0" y="247.0"/>
      <point x="450.0" y="155.0"/>
      <point x="347.0" y="155.0" type="curve" smooth="yes"/>
      <point x="244.0" y="155.0"/>
      <point x="182.0" y="247.0"/>
      <point x="182.0" y="400.0" type="curve" smooth="yes"/>
      <point x="182.0" y="553.0"/>
      <point x="244.0" y="645.0"/>
      <point x="347.0" y="645.0" type="curve" smooth="yes"/>
      <point x="417.0" y="645.0"/>
      <point x="472.0" y="600.0"/>
      <point x="482.0" y="540.0" type="curve"/>
      <point x="637.0" y="540.0" type="line"/>
      <point x="617.0" y="700.0"/>
      <point x="507.0" y="810.0"/>
      <point x="347.0" y="810.0" type="curve" smooth="yes"/>
      <point x="153.0" y="810.0"/>
      <point x="37.0" y="656.0"/>
      <point x="37.0" y="400.0" type="curve" smooth="yes"/>
      <point x="37.0" y="144.0"/>
      <point x="153.0" y="-10.0"/>
    </contour>
  </outline>
</glyph>
<glyph name="J" format="2">
  <advance width="594"/>
  <unicode hex="004A"/>
  <outline>
    <contour>
      <point x="37.0" y="280.0" type="line"/>
      <point x="37.0" y="100.0"/>
      <point x="132.0" y="-10.0"/>
      <point x="287.0" y="-10.0" type="curve" smooth="yes"/>
      <point x="442.0" y="-10.0"/>
      <point x="537.0" y="100.0"/>
      <point x="537.0" y="280.0" type="curve" smooth="yes"/>
      <point x="537.0" y="800.0" type="line"/>
      <point x="387.0" y="800.0" type="line"/>
      <point x="387.0" y="280.0" type="line" smooth="yes"/>
      <point x="387.0" y="205.0"/>
      <point x="350.0" y="160.0"/>
      <point x="287.0" y="160.0" type="curve" smooth="yes"/>
      <point x="224.0" y="160.0"/>
      <point x="187.0" y="205.0"/>
      <point x="187.0" y="280.0" type="curve"/>
      <point x="187.0" y="280.0" type="line"/>
      <point x="37.0" y="280.0" type="line"/>
    </contour>
  </outline>
</glyph>
<glyph name="K" format="2">
  <advance width="664"/>
  <unicode hex="004B"/>
  <anchor x="345.0" y="0" name="bottom"/>
  <outline>
    <contour>
      <point x="67.0" y="0.0" type="line"/>
      <point x="217.0" y="0.0" type="line"/>
      <point x="217.0" y="800.0" type="line"/>
      <point x="67.0" y="800.0" type="line"/>
    </contour>
    <contour>
      <point x="477.0" y="800.0" type="line"/>
      <point x="67.0" y="280.0" type="line"/>
      <point x="217.0" y="240.0" type="line"/>
      <point x="667.0" y="800.0" type="line"/>
    </contour>
    <contour>
      <point x="487.0" y="0.0" type="line"/>
      <point x="667.0" y="0.0" type="line"/>
      <point x="397.0" y="500.0" type="line"/>
      <point x="247.0" y="450.0" type="line"/>
    </contour>
  </outline>
</glyph>
<glyph name="L" format="2">
  <advance width="544"/>
  <unicode hex="004C"/>
  <anchor x="142.0" y="800" name="top"/>
  <anchor x="297.0" y="0" name="bottom"/>
  <anchor x="217.0" y="600" name="caron.alt"/>
  <outline>
    <contour>
      <point x="67.0" y="0.0" type="line"/>
      <point x="527.0" y="0.0" type="line"/>
      <point x="527.0" y="160.0" type="line"/>
      <point x="217.0" y="160.0" type="line"/>
      <point x="217.0" y="800.0" type="line"/>
      <point x="67.0" y="800.0" type="line"/>
    </contour>
  </outline>
</glyph>
<glyph name="M" format="2">
  <advance width="924"/>
  <unicode hex="004D"/>
  <outline>
    <contour>
      <point x="67.0" y="0.0" type="line"/>
      <point x="212.0" y="0.0" type="line"/>
      <point x="212.0" y="620.0" type="line"/>
      <point x="222.0" y="620.0" type="line"/>
      <point x="252.0" y="500.0" type="line"/>
      <point x="377.0" y="0.0" type="line"/>
      <point x="547.0" y="0.0" type="line"/>
      <point x="672.0" y="500.0" type="line"/>
      <point x="702.0" y="620.0" type="line"/>
      <point x="712.0" y="620.0" type="line"/>
      <point x="712.0" y="0.0" type="line"/>
      <point x="857.0" y="0.0" type="line"/>
      <point x="857.0" y="800.0" type="line"/>
      <point x="602.0" y="800.0" type="line"/>
      <point x="487.0" y="340.0" type="line"/>
      <point x="467.0" y="260.0" type="line"/>
      <point x="457.0" y="260.0" type="line"/>
      <point x="437.0" y="340.0" type="line"/>
      <point x="322.0" y="800.0" type="line"/>
      <point x="67.0" y="800.0" type="line"/>
    </contour>
  </outline>
</glyph>
<glyph name="N" format="2">
  <advance width="714"/>
  <unicode hex="004E"/>
  <anchor x="367.0" y="800" name="top"/>
  <anchor x="357.0" y="0" name="bottom"/>
  <outline>
    <contour>
      <point x="67.0" y="0.0" type="line"/>
      <point x="212.0" y="0.0" type="line"/>
      <point x="212.0" y="800.0" type="line"/>
      <point x="67.0" y="800.0" type="line"/>
    </contour>
    <contour>
      <point x="502.0" y="0.0" type="line"/>
      <point x="647.0" y="0.0" type="line"/>
      <point x="647.0" y="800.0" type="line"/>
      <point x="502.0" y="800.0" type="line"/>
    </contour>
    <contour>
      <point x="427.0" y="0.0" type="line"/>
      <point x="548.0" y="0.0" type="line"/>
      <point x="502.0" y="240.0" type="line"/>
      <point x="492.0" y="240.0" type="line"/>
      <point x="452.0" y="350.0" type="line"/>
      <point x="287.0" y="800.0" type="line"/>
      <point x="168.0" y="800.0" type="line"/>
      <point x="212.0" y="560.0" type="line"/>
      <point x="222.0" y="560.0" type="line"/>
      <point x="262.0" y="450.0" type="line"/>
    </contour>
  </outline>
</glyph>
<glyph name="O" format="2">
  <advance width="694"/>
  <unicode hex="004F"/>
  <anchor x="347.0" y="800.0" name="top"/>
  <outline>
    <contour>
      <point x="347.0" y="-10.0" type="curve" smooth="yes"/>
      <point x="541.0" y="-10.0"/>
      <point x="657.0" y="144.0"/>
      <point x="657.0" y="400.0" type="curve" smooth="yes"/>
      <point x="657.0" y="656.0"/>
      <point x="541.0" y="810.0"/>
      <point x="347.0" y="810.0" type="curve" smooth="yes"/>
      <point x="153.0" y="810.0"/>
      <point x="37.0" y="656.0"/>
      <point x="37.0" y="400.0" type="curve" smooth="yes"/>
      <point x="37.0" y="144.0"/>
      <point x="153.0" y="-10.0"/>
    </contour>
    <contour>
      <point x="347.0" y="155.0" type="curve" smooth="yes"/>
      <point x="244.0" y="155.0"/>
      <point x="182.0" y="247.0"/>
      <point x="182.0" y="400.0" type="curve" smooth="yes"/>
      <point x="182.0" y="553.0"/>
      <point x="244.0" y="645.0"/>
      <point x="347.0" y="645.0" type="curve" smooth="yes"/>
      <point x="450.0" y="645.0"/>
      <point x="512.0" y="553.0"/>
      <point x="512.0" y="400.0" type="curve" smooth="yes"/>
      <point x="512.0" y="247.0"/>
      <point x="450.0" y="155.0"/>
    </contour>
  </outline>
</glyph>
<glyph name="P" format="2">
  <advance width="619"/>
  <unicode hex="0050"/>
  <outline>
    <contour>
      <point x="217.0" y="440.0" type="line"/>
      <point x="217.0" y="640.0" type="line"/>
      <point x="312.0" y="640.0" type="line" smooth="yes"/>
      <point x="402.0" y="640.0"/>
      <point x="447.0" y="606.0"/>
      <point x="447.0" y="540.0" type="curve" smooth="yes"/>
      <point x="447.0" y="474.0"/>
      <point x="402.0" y="440.0"/>
      <point x="312.0" y="440.0" type="curve" smooth="yes"/>
    </contour>
    <contour>
      <point x="67.0" y="0.0" type="line"/>
      <point x="217.0" y="0.0" type="line"/>
      <point x="217.0" y="280.0" type="line"/>
      <point x="312.0" y="280.0" type="line" smooth="yes"/>
      <point x="497.0" y="280.0"/>
      <point x="592.0" y="368.0"/>
      <point x="592.0" y="540.0" type="curve" smooth="yes"/>
      <point x="592.0" y="712.0"/>
      <point x="497.0" y="800.0"/>
      <point x="312.0" y="800.0" type="curve" smooth="yes"/>
      <point x="67.0" y="800.0" type="line"/>
    </contour>
  </outline>
</glyph>
<glyph name="R" format="2">
  <advance width="634"/>
  <unicode hex="0052"/>
  <anchor x="317.0" y="800" name="top"/>
  <outline>
    <contour>
      <point x="217.0" y="460.0" type="line"/>
      <point x="217.0" y="640.0" type="line"/>
      <point x="327.0" y="640.0" type="line" smooth="yes"/>
      <point x="407.0" y="640.0"/>
      <point x="447.0" y="610.0"/>
      <point x="447.0" y="550.0" type="curve" smooth="yes"/>
      <point x="447.0" y="490.0"/>
      <point x="407.0" y="460.0"/>
      <point x="327.0" y="460.0" type="curve" smooth="yes"/>
    </contour>
    <contour>
      <point x="67.0" y="0.0" type="line"/>
      <point x="217.0" y="0.0" type="line"/>
      <point x="217.0" y="310.0" type="line"/>
      <point x="327.0" y="310.0" type="line" smooth="yes"/>
      <point x="397.0" y="310.0"/>
      <point x="432.0" y="283.0"/>
      <point x="432.0" y="230.0" type="curve" smooth="yes"/>
      <point x="432.0" y="90.0" type="line" smooth="yes"/>
      <point x="432.0" y="60.0"/>
      <point x="437.0" y="30.0"/>
      <point x="447.0" y="0.0" type="curve"/>
      <point x="597.0" y="0.0" type="line"/>
      <point x="587.0" y="30.0"/>
      <point x="582.0" y="60.0"/>
      <point x="582.0" y="90.0" type="curve" smooth="yes"/>
      <point x="582.0" y="230.0" type="line" smooth="yes"/>
      <point x="582.0" y="362.0"/>
      <point x="497.0" y="430.0"/>
      <point x="322.0" y="430.0" type="curve"/>
      <point x="327.0" y="350.0" type="line"/>
      <point x="502.0" y="350.0"/>
      <point x="592.0" y="430.0"/>
      <point x="592.0" y="570.0" type="curve" smooth="yes"/>
      <point x="592.0" y="720.0"/>
      <point x="502.0" y="800.0"/>
      <point x="327.0" y="800.0" type="curve" smooth="yes"/>
      <point x="67.0" y="800.0" type="line"/>
    </contour>
  </outline>
</glyph>
<glyph name="S" format="2">
  <advance width="609"/>
  <unicode hex="0053"/>
  <anchor x="307.0" y="800" name="top"/>
  <anchor x="307.0" y="0" name="bottom"/>
  <outline>
    <contour>
      <point x="32.0" y="260.0" type="line"/>
      <point x="32.0" y="120.0"/>
      <point x="127.0" y="-10.0"/>
      <point x="307.0" y="-10.0" type="curve" smooth="yes"/>
      <point x="487.0" y="-10.0"/>
      <point x="577.0" y="120.0"/>
      <point x="577.0" y="240.0" type="curve" smooth="yes"/>
      <point x="577.0" y="380.0"/>
      <point x="487.0" y="440.0"/>
      <point x="327.0" y="480.0" type="curve" smooth="yes"/>
      <point x="227.0" y="505.0"/>
      <point x="192.0" y="520.0"/>
      <point x="192.0" y="570.0" type="curve" smooth="yes"/>
      <point x="192.0" y="620.0"/>
      <point x="232.0" y="655.0"/>
      <point x="307.0" y="655.0" type="curve" smooth="yes"/>
      <point x="382.0" y="655.0"/>
      <point x="427.0" y="610.0"/>
      <point x="427.0" y="540.0" type="curve"/>
      <point x="427.0" y="540.0" type="line"/>
      <point x="577.0" y="540.0" type="line"/>
      <point x="577.0" y="540.0" type="line"/>
      <point x="577.0" y="680.0"/>
      <point x="487.0" y="810.0"/>
      <point x="307.0" y="810.0" type="curve" smooth="yes"/>
      <point x="127.0" y="810.0"/>
      <point x="42.0" y="680.0"/>
      <point x="42.0" y="560.0" type="curve" smooth="yes"/>
      <point x="42.0" y="420.0"/>
      <point x="127.0" y="360.0"/>
      <point x="287.0" y="320.0" type="curve" smooth="yes"/>
      <point x="387.0" y="295.0"/>
      <point x="427.0" y="280.0"/>
      <point x="427.0" y="230.0" type="curve" smooth="yes"/>
      <point x="427.0" y="180.0"/>
      <point x="382.0" y="145.0"/>
      <point x="307.0" y="145.0" type="curve" smooth="yes"/>
      <point x="232.0" y="145.0"/>
      <point x="182.0" y="190.0"/>
      <point x="182.0" y="260.0" type="curve"/>
      <point x="182.0" y="260.0" type="line"/>
      <point x="32.0" y="260.0" type="line"/>
    </contour>
  </outline>
</glyph>
<glyph name="T" format="2">
  <advance width="584"/>
  <unicode hex="0054"/>
  <anchor x="292.0" y="800" name="top"/>
  <anchor x="292.0" y="0" name="bottom"/>
  <outline>
    <contour>
      <point x="217.0" y="0.0" type="line"/>
      <point x="367.0" y="0.0" type="line"/>
      <point x="367.0" y="640.0" type="line"/>
      <point x="557.0" y="640.0" type="line"/>
      <point x="557.0" y="800.0" type="line"/>
      <point x="27.0" y="800.0" type="line"/>
      <point x="27.0" y="640.0" type="line"/>
      <point x="217.0" y="640.0" type="line"/>
    </contour>
  </outline>
</glyph>
<glyph name="U" format="2">
  <advance width="664"/>
  <unicode hex="0055"/>
  <anchor x="332.0" y="800" name="top"/>
  <outline>
    <contour>
      <point x="57.0" y="320.0" type="line" smooth="yes"/>
      <point x="57.0" y="120.0"/>
      <point x="151.0" y="-10.0"/>
      <point x="332.0" y="-10.0" type="curve" smooth="yes"/>
      <point x="513.0" y="-10.0"/>
      <point x="607.0" y="120.0"/>
      <point x="607.0" y="320.0" type="curve" smooth="yes"/>
      <point x="607.0" y="800.0" type="line"/>
      <point x="457.0" y="800.0" type="line"/>
      <point x="457.0" y="320.0" type="line" smooth="yes"/>
      <point x="457.0" y="220.0"/>
      <point x="410.0" y="160.0"/>
      <point x="332.0" y="160.0" type="curve" smooth="yes"/>
      <point x="254.0" y="160.0"/>
      <point x="207.0" y="220.0"/>
      <point x="207.0" y="320.0" type="curve" smooth="yes"/>
      <point x="207.0" y="800.0" type="line"/>
      <point x="57.0" y="800.0" type="line"/>
    </contour>
  </outline>
</glyph>
<glyph name="V" format="2">
  <advance width="664"/>
  <unicode hex="0056"/>
  <outline>
    <contour>
      <point x="657.0" y="800.0" type="line"/>
      <point x="499.0" y="800.0" type="line"/>
      <point x="358.0" y="270.0" type="line"/>
      <point x="338.0" y="190.0" type="line"/>
      <point x="328.0" y="190.0" type="line"/>
      <point x="308.0" y="270.0" type="line"/>
      <point x="167.0" y="800.0" type="line"/>
      <point x="7.0" y="800.0" type="line"/>
      <point x="227.0" y="0.0" type="line"/>
      <point x="437.0" y="0.0" type="line"/>
    </contour>
  </outline>
</glyph>
<glyph name="W" format="2">
  <advance width="954"/>
  <unicode hex="0057"/>
  <anchor x="477" y="800" name="top"/>
  <outline>
    <contour>
      <point x="372" y="800" type="line"/>
      <point x="282" y="300" type="line"/>
      <point x="267" y="220" type="line"/>
      <point x="257" y="220" type="line"/>
      <point x="242" y="300" type="line"/>
      <point x="157" y="800" type="line"/>
      <point x="7" y="800" type="line"/>
      <point x="157" y="0" type="line"/>
      <point x="367" y="0" type="line"/>
      <point x="457" y="500" type="line"/>
      <point x="472" y="580" type="line"/>
      <point x="482" y="580" type="line"/>
      <point x="497" y="500" type="line"/>
      <point x="587" y="0" type="line"/>
      <point x="797" y="0" type="line"/>
      <point x="947" y="800" type="line"/>
      <point x="797" y="800" type="line"/>
      <point x="712" y="300" type="line"/>
      <point x="697" y="220" type="line"/>
      <point x="687" y="220" type="line"/>
      <point x="672" y="300" type="line"/>
      <point x="582" y="800" type="line"/>
    </contour>
  </outline>
</glyph>
<glyph name="X" format="2">
  <advance width="634"/>
  <unicode hex="0058"/>
  <outline>
    <contour>
      <point x="7.0" y="0.0" type="line"/>
      <point x="178.0" y="0.0" type="line"/>
      <point x="368.0" y="400.0" type="line"/>
      <point x="332.0" y="480.0" type="line"/>
      <point x="247.0" y="480.0" type="line"/>
    </contour>
    <contour>
      <point x="287.0" y="490.0" type="line"/>
      <point x="347.0" y="490.0" type="line"/>
      <point x="347.0" y="541.0" type="line"/>
      <point x="287.0" y="541.0" type="line"/>
    </contour>
    <contour>
      <point x="627.0" y="0.0" type="line"/>
      <point x="387.0" y="480.0" type="line"/>
      <point x="302.0" y="480.0" type="line"/>
      <point x="262.0" y="400.0" type="line"/>
      <point x="452.0" y="0.0" type="line"/>
    </contour>
    <contour>
      <point x="617.0" y="800.0" type="line"/>
      <point x="447.0" y="800.0" type="line"/>
      <point x="276.0" y="440.0" type="line"/>
      <point x="312.0" y="360.0" type="line"/>
      <point x="397.0" y="360.0" type="line"/>
    </contour>
    <contour>
      <point x="191.0" y="800.0" type="line"/>
      <point x="17.0" y="800.0" type="line"/>
      <point x="237.0" y="360.0" type="line"/>
      <point x="322.0" y="360.0" type="line"/>
      <point x="362.0" y="440.0" type="line"/>
    </contour>
    <contour>
      <point x="287.0" y="278.0" type="line"/>
      <point x="347.0" y="278.0" type="line"/>
      <point x="347.0" y="330.0" type="line"/>
      <point x="287.0" y="330.0" type="line"/>
    </contour>
  </outline>
</glyph>
<glyph name="Y" format="2">
  <advance width="624"/>
  <unicode hex="0059"/>
  <anchor x="312.0" y="800" name="top"/>
  <outline>
    <contour>
      <point x="387.0" y="300.0" type="line"/>
      <point x="617.0" y="800.0" type="line"/>
      <point x="453.0" y="800.0" type="line"/>
      <point x="353.0" y="570.0" type="line"/>
      <point x="319.0" y="490.0" type="line"/>
      <point x="309.0" y="490.0" type="line"/>
      <point x="275.0" y="570.0" type="line"/>
      <point x="175.0" y="800.0" type="line"/>
      <point x="7.0" y="800.0" type="line"/>
      <point x="237.0" y="300.0" type="line"/>
      <point x="237.0" y="0.0" type="line"/>
      <point x="387.0" y="0.0" type="line"/>
    </contour>
  </outline>
</glyph>
<glyph name="Z" format="2">
  <advance width="564"/>
  <unicode hex="005A"/>
  <anchor x="282.0" y="800" name="top"/>
  <outline>
    <contour>
      <point x="37.0" y="0.0" type="line"/>
      <point x="527.0" y="0.0" type="line"/>
      <point x="527.0" y="160.0" type="line"/>
      <point x="219.0" y="160.0" type="line"/>
      <point x="522.0" y="650.0" type="line"/>
      <point x="522.0" y="800.0" type="line"/>
      <point x="42.0" y="800.0" type="line"/>
      <point x="42.0" y="640.0" type="line"/>
      <point x="340.0" y="640.0" type="line"/>
      <point x="37.0" y="150.0" type="line"/>
    </contour>
  </outline>
</glyph>
<glyph name="bracketleft" format="2">
  <advance width="400"/>
  <unicode hex="005B"/>
  <outline>
    <contour>
      <point x="90" y="-200" type="line"/>
      <point x="390" y="-200" type="line"/>
      <point x="390" y="-50" type="line"/>
      <point x="230" y="-50" type="line"/>
      <point x="230" y="650" type="line"/>
      <point x="390" y="650" type="line"/>
      <point x="390" y="800" type="line"/>
      <point x="90" y="800" type="line"/>
    </contour>
  </outline>
</glyph>
<glyph name="bracketright" format="2">
  <advance width="400"/>
  <unicode hex="005D"/>
  <outline>
    <contour>
      <point x="310" y="-200" type="line"/>
      <point x="310" y="800" type="line"/>
      <point x="10" y="800" type="line"/>
      <point x="10" y="650" type="line"/>
      <point x="170" y="650" type="line"/>
      <point x="170" y="-50" type="line"/>
      <point x="10" y="-50" type="line"/>
      <point x="10" y="-200" type="line"/>
    </contour>
  </outline>
</glyph>
<glyph name="asciicircum" format="2">
  <advance width="600"/>
  <unicode hex="005E"/>
  <outline>
    <contour>
      <point x="198" y="400" type="line"/>
      <point x="338" y="800" type="line"/>
      <point x="200" y="800" type="line"/>
      <point x="50" y="400" type="line"/>
    </contour>
    <contour>
      <point x="398" y="400" type="line"/>
      <point x="550" y="400" type="line"/>
      <point x="400" y="800" type="line"/>
      <point x="258" y="800" type="line"/>
    </contour>
  </outline>
</glyph>
<glyph name="underscore" format="2">
  <advance width="540"/>
  <unicode hex="005F"/>
  <outline>
    <contour>
      <point x="500" y="0" type="line"/>
      <point x="40" y="0" type="line"/>
      <point x="40" y="-150" type="line"/>
      <point x="500" y="-150" type="line"/>
    </contour>
  </outline>
</glyph>
<glyph name="a" format="2">
  <advance width="559"/>
  <unicode hex="0061"/>
  <anchor x="282.0" y="600" name="top"/>
  <anchor x="522.0" y="0" name="ogonek"/>
  <outline>
    <contour>
      <point x="357.0" y="270.0" type="curve"/>
      <point x="357.0" y="220.0" type="line" smooth="yes"/>
      <point x="357.0" y="160.0"/>
      <point x="302.0" y="120.0"/>
      <point x="242.0" y="120.0" type="curve" smooth="yes"/>
      <point x="197.0" y="120.0"/>
      <point x="172.0" y="140.0"/>
      <point x="172.0" y="170.0" type="curve" smooth="yes"/>
      <point x="172.0" y="230.0"/>
      <point x="267.0" y="240.0"/>
    </contour>
    <contour>
      <point x="522.0" y="0.0" type="line"/>
      <point x="512.0" y="30.0"/>
      <point x="507.0" y="60.0"/>
      <point x="507.0" y="90.0" type="curve" smooth="yes"/>
      <point x="507.0" y="400.0" type="line" smooth="yes"/>
      <point x="507.0" y="540.0"/>
      <point x="412.0" y="610.0"/>
      <point x="282.0" y="610.0" type="curve" smooth="yes"/>
      <point x="152.0" y="610.0"/>
      <point x="57.0" y="540.0"/>
      <point x="47.0" y="400.0" type="curve"/>
      <point x="187.0" y="400.0" type="line"/>
      <point x="192.0" y="450.0"/>
      <point x="232.0" y="480.0"/>
      <point x="282.0" y="480.0" type="curve" smooth="yes"/>
      <point x="332.0" y="480.0"/>
      <point x="357.0" y="450.0"/>
      <point x="357.0" y="420.0" type="curve" smooth="yes"/>
      <point x="357.0" y="340.0"/>
      <point x="32.0" y="400.0"/>
      <point x="32.0" y="160.0" type="curve" smooth="yes"/>
      <point x="32.0" y="50.0"/>
      <point x="102.0" y="-10.0"/>
      <point x="202.0" y="-10.0" type="curve" smooth="yes"/>
      <point x="272.0" y="-10.0"/>
      <point x="322.0" y="25.0"/>
      <point x="347.0" y="70.0" type="curve"/>
      <point x="357.0" y="70.0" type="line"/>
      <point x="357.0" y="47.0"/>
      <point x="360.0" y="23.0"/>
      <point x="367.0" y="0.0" type="curve"/>
    </contour>
  </outline>
</glyph>
<glyph name="b" format="2">
  <advance width="594"/>
  <unicode hex="0062"/>
  <outline>
    <contour>
      <point x="352.0" y="-10.0" type="curve" smooth="yes"/>
      <point x="472.0" y="-10.0"/>
      <point x="562.0" y="106.0"/>
      <point x="562.0" y="300.0" type="curve" smooth="yes"/>
      <point x="562.0" y="494.0"/>
      <point x="472.0" y="610.0"/>
      <point x="352.0" y="610.0" type="curve" smooth="yes"/>
      <point x="282.0" y="610.0"/>
      <point x="232.0" y="570.0"/>
      <point x="212.0" y="530.0" type="curve"/>
      <point x="207.0" y="530.0" type="line"/>
      <point x="207.0" y="800.0" type="line"/>
      <point x="57.0" y="800.0" type="line"/>
      <point x="57.0" y="0.0" type="line"/>
      <point x="207.0" y="0.0" type="line"/>
      <point x="207.0" y="70.0" type="line"/>
      <point x="212.0" y="70.0" type="line"/>
      <point x="232.0" y="30.0"/>
      <point x="282.0" y="-10.0"/>
    </contour>
    <contour>
      <point x="202.0" y="300.0" type="curve" smooth="yes"/>
      <point x="202.0" y="400.0"/>
      <point x="243.0" y="460.0"/>
      <point x="312.0" y="460.0" type="curve" smooth="yes"/>
      <point x="381.0" y="460.0"/>
      <point x="422.0" y="400.0"/>
      <point x="422.0" y="300.0" type="curve" smooth="yes"/>
      <point x="422.0" y="200.0"/>
      <point x="381.0" y="140.0"/>
      <point x="312.0" y="140.0" type="curve" smooth="yes"/>
      <point x="243.0" y="140.0"/>
      <point x="202.0" y="200.0"/>
    </contour>
  </outline>
</glyph>
<glyph name="c" format="2">
  <advance width="534"/>
  <unicode hex="0063"/>
  <anchor x="272.0" y="600" name="top"/>
  <anchor x="272.0" y="0" name="bottom"/>
  <outline>
    <contour>
      <point x="272.0" y="140.0" type="curve" smooth="yes"/>
      <point x="209.0" y="140.0"/>
      <point x="172.0" y="200.0"/>
      <point x="172.0" y="300.0" type="curve" smooth="yes"/>
      <point x="172.0" y="400.0"/>
      <point x="209.0" y="460.0"/>
      <point x="272.0" y="460.0" type="curve" smooth="yes"/>
      <point x="317.0" y="460.0"/>
      <point x="347.0" y="430.0"/>
      <point x="357.0" y="380.0" type="curve"/>
      <point x="502.0" y="380.0" type="line"/>
      <point x="482.0" y="525.0"/>
      <point x="400.0" y="610.0"/>
      <point x="272.0" y="610.0" type="curve" smooth="yes"/>
      <point x="122.0" y="610.0"/>
      <point x="32.0" y="494.0"/>
      <point x="32.0" y="300.0" type="curve" smooth="yes"/>
      <point x="32.0" y="106.0"/>
      <point x="122.0" y="-10.0"/>
      <point x="272.0" y="-10.0" type="curve" smooth="yes"/>
      <point x="400.0" y="-10.0"/>
      <point x="482.0" y="75.0"/>
      <point x="502.0" y="220.0" type="curve"/>
      <point x="357.0" y="220.0" type="line"/>
      <point x="347.0" y="170.0"/>
      <point x="317.0" y="140.0"/>
    </contour>
  </outline>
</glyph>
<glyph name="d" format="2">
  <advance width="594"/>
  <unicode hex="0064"/>
  <anchor x="537" y="600" name="caron.alt"/>
  <outline>
    <contour>
      <point x="242" y="-10" type="curve" smooth="yes"/>
      <point x="312" y="-10"/>
      <point x="362" y="30"/>
      <point x="382" y="70" type="curve"/>
      <point x="387" y="70" type="line"/>
      <point x="387" y="0" type="line"/>
      <point x="537" y="0" type="line"/>
      <point x="537" y="800" type="line"/>
      <point x="387" y="800" type="line"/>
      <point x="387" y="530" type="line"/>
      <point x="382" y="530" type="line"/>
      <point x="362" y="570"/>
      <point x="312" y="610"/>
      <point x="242" y="610" type="curve" smooth="yes"/>
      <point x="122" y="610"/>
      <point x="32" y="494"/>
      <point x="32" y="300" type="curve" smooth="yes"/>
      <point x="32" y="106"/>
      <point x="122" y="-10"/>
    </contour>
    <contour>
      <point x="392" y="300" type="curve" smooth="yes"/>
      <point x="392" y="200"/>
      <point x="351" y="140"/>
      <point x="282" y="140" type="curve" smooth="yes"/>
      <point x="213" y="140"/>
      <point x="172" y="200"/>
      <point x="172" y="300" type="curve" smooth="yes"/>
      <point x="172" y="400"/>
      <point x="213" y="460"/>
      <point x="282" y="460" type="curve" smooth="yes"/>
      <point x="351" y="460"/>
      <point x="392" y="400"/>
    </contour>
  </outline>
</glyph>
<glyph name="e" format="2">
  <advance width="564"/>
  <unicode hex="0065"/>
  <anchor x="282.0" y="600" name="top"/>
  <outline>
    <contour>
      <point x="529.0" y="240.0" type="line"/>
      <point x="531.0" y="260.0"/>
      <point x="532.0" y="280.0"/>
      <point x="532.0" y="300.0" type="curve" smooth="yes"/>
      <point x="532.0" y="494.0"/>
      <point x="438.0" y="610.0"/>
      <point x="282.0" y="610.0" type="curve" smooth="yes"/>
      <point x="126.0" y="610.0"/>
      <point x="32.0" y="494.0"/>
      <point x="32.0" y="300.0" type="curve" smooth="yes"/>
      <point x="32.0" y="106.0"/>
      <point x="126.0" y="-10.0"/>
      <point x="282.0" y="-10.0" type="curve" smooth="yes"/>
      <point x="402.0" y="-10.0"/>
      <point x="487.0" y="60.0"/>
      <point x="517.0" y="180.0" type="curve"/>
      <point x="372.0" y="180.0" type="line"/>
      <point x="352.0" y="140.0"/>
      <point x="322.0" y="120.0"/>
      <point x="282.0" y="120.0" type="curve" smooth="yes"/>
      <point x="207.0" y="120.0"/>
      <point x="167.0" y="188.0"/>
      <point x="167.0" y="300.0" type="curve" smooth="yes"/>
      <point x="167.0" y="412.0"/>
      <point x="207.0" y="480.0"/>
      <point x="282.0" y="480.0" type="curve" smooth="yes"/>
      <point x="357.0" y="480.0"/>
      <point x="397.0" y="412.0"/>
      <point x="397.0" y="300.0" type="curve"/>
      <point x="462.0" y="370.0" type="line"/>
      <point x="127.0" y="370.0" type="line"/>
      <point x="127.0" y="240.0" type="line"/>
    </contour>
  </outline>
</glyph>
<glyph name="f" format="2">
  <advance width="404"/>
  <unicode hex="0066"/>
  <outline>
    <contour>
      <point x="257.0" y="0.0" type="line"/>
      <point x="257.0" y="440.0" type="line"/>
      <point x="377.0" y="440.0" type="line"/>
      <point x="377.0" y="590.0" type="line"/>
      <point x="257.0" y="590.0" type="line"/>
      <point x="257.0" y="620.0" type="line" smooth="yes"/>
      <point x="257.0" y="650.0"/>
      <point x="267.0" y="660.0"/>
      <point x="297.0" y="660.0" type="curve" smooth="yes"/>
      <point x="377.0" y="660.0" type="line"/>
      <point x="377.0" y="800.0" type="line"/>
      <point x="257.0" y="800.0" type="line" smooth="yes"/>
      <point x="157.0" y="800.0"/>
      <point x="107.0" y="750.0"/>
      <point x="107.0" y="650.0" type="curve" smooth="yes"/>
      <point x="107.0" y="590.0" type="line"/>
      <point x="17.0" y="590.0" type="line"/>
      <point x="17.0" y="440.0" type="line"/>
      <point x="107.0" y="440.0" type="line"/>
      <point x="107.0" y="0.0" type="line"/>
    </contour>
  </outline>
</glyph>
<glyph name="g" format="2">
  <advance width="594"/>
  <unicode hex="0067"/>
  <anchor x="297.0" y="600" name="top"/>
  <outline>
    <contour>
      <point x="387.0" y="60.0" type="line" smooth="yes"/>
      <point x="387.0" y="-40.0"/>
      <point x="351.0" y="-80.0"/>
      <point x="287.0" y="-80.0" type="curve" smooth="yes"/>
      <point x="239.0" y="-80.0"/>
      <point x="215.0" y="-60.0"/>
      <point x="207.0" y="-30.0" type="curve"/>
      <point x="52.0" y="-30.0" type="line"/>
      <point x="61.0" y="-120.0"/>
      <point x="131.0" y="-210.0"/>
      <point x="287.0" y="-210.0" type="curve" smooth="yes"/>
      <point x="443.0" y="-210.0"/>
      <point x="537.0" y="-120.0"/>
      <point x="537.0" y="60.0" type="curve" smooth="yes"/>
      <point x="537.0" y="600.0" type="line"/>
      <point x="387.0" y="600.0" type="line"/>
      <point x="387.0" y="530.0" type="line"/>
      <point x="382.0" y="530.0" type="line"/>
      <point x="362.0" y="570.0"/>
      <point x="312.0" y="610.0"/>
      <point x="242.0" y="610.0" type="curve" smooth="yes"/>
      <point x="122.0" y="610.0"/>
      <point x="32.0" y="494.0"/>
      <point x="32.0" y="305.0" type="curve" smooth="yes"/>
      <point x="32.0" y="116.0"/>
      <point x="122.0" y="0.0"/>
      <point x="242.0" y="0.0" type="curve" smooth="yes"/>
      <point x="312.0" y="0.0"/>
      <point x="362.0" y="40.0"/>
      <point x="382.0" y="80.0" type="curve"/>
      <point x="387.0" y="80.0" type="line"/>
    </contour>
    <contour>
      <point x="392.0" y="305.0" type="curve" smooth="yes"/>
      <point x="392.0" y="210.0"/>
      <point x="351.0" y="150.0"/>
      <point x="282.0" y="150.0" type="curve" smooth="yes"/>
      <point x="213.0" y="150.0"/>
      <point x="172.0" y="210.0"/>
      <point x="172.0" y="305.0" type="curve" smooth="yes"/>
      <point x="172.0" y="400.0"/>
      <point x="213.0" y="460.0"/>
      <point x="282.0" y="460.0" type="curve" smooth="yes"/>
      <point x="351.0" y="460.0"/>
      <point x="392.0" y="400.0"/>
    </contour>
  </outline>
</glyph>
<glyph name="h" format="2">
  <advance width="589"/>
  <unicode hex="0068"/>
  <outline>
    <contour>
      <point x="57.0" y="0.0" type="line"/>
      <point x="207.0" y="0.0" type="line"/>
      <point x="207.0" y="330.0" type="line" smooth="yes"/>
      <point x="207.0" y="405.0"/>
      <point x="241.0" y="450.0"/>
      <point x="297.0" y="450.0" type="curve" smooth="yes"/>
      <point x="353.0" y="450.0"/>
      <point x="387.0" y="405.0"/>
      <point x="387.0" y="330.0" type="curve" smooth="yes"/>
      <point x="387.0" y="0.0" type="line"/>
      <point x="537.0" y="0.0" type="line"/>
      <point x="537.0" y="370.0" type="line" smooth="yes"/>
      <point x="537.0" y="520.0"/>
      <point x="469.0" y="610.0"/>
      <point x="357.0" y="610.0" type="curve" smooth="yes"/>
      <point x="287.0" y="610.0"/>
      <point x="232.0" y="570.0"/>
      <point x="212.0" y="530.0" type="curve"/>
      <point x="207.0" y="530.0" type="line"/>
      <point x="207.0" y="800.0" type="line"/>
      <point x="57.0" y="800.0" type="line"/>
    </contour>
  </outline>
</glyph>
<glyph name="i" format="2">
  <advance width="264"/>
  <unicode hex="0069"/>
  <anchor x="207.0" y="0" name="ogonek"/>
  <outline>
    <contour>
      <point x="57.0" y="0.0" type="line"/>
      <point x="207.0" y="0.0" type="line"/>
      <point x="207.0" y="600.0" type="line"/>
      <point x="57.0" y="600.0" type="line"/>
    </contour>
    <contour>
      <point x="57.0" y="660.0" type="line"/>
      <point x="207.0" y="660.0" type="line"/>
      <point x="207.0" y="800.0" type="line"/>
      <point x="57.0" y="800.0" type="line"/>
    </contour>
  </outline>
</glyph>
<glyph name="j" format="2">
  <advance width="264"/>
  <unicode hex="006A"/>
  <outline>
    <contour>
      <point x="57.0" y="660.0" type="line"/>
      <point x="207.0" y="660.0" type="line"/>
      <point x="207.0" y="800.0" type="line"/>
      <point x="57.0" y="800.0" type="line"/>
    </contour>
    <contour>
      <point x="-23.0" y="-200.0" type="line"/>
      <point x="57.0" y="-200.0" type="line" smooth="yes"/>
      <point x="157.0" y="-200.0"/>
      <point x="207.0" y="-150.0"/>
      <point x="207.0" y="-50.0" type="curve" smooth="yes"/>
      <point x="207.0" y="600.0" type="line"/>
      <point x="57.0" y="600.0" type="line"/>
      <point x="57.0" y="-10.0" type="line" smooth="yes"/>
      <point x="57.0" y="-40.0"/>
      <point x="47.0" y="-50.0"/>
      <point x="17.0" y="-50.0" type="curve" smooth="yes"/>
      <point x="-23.0" y="-50.0" type="line"/>
    </contour>
  </outline>
</glyph>
<glyph name="k" format="2">
  <advance width="564"/>
  <unicode hex="006B"/>
  <anchor x="297.0" y="0" name="bottom"/>
  <outline>
    <contour>
      <point x="57.0" y="0.0" type="line"/>
      <point x="207.0" y="0.0" type="line"/>
      <point x="207.0" y="800.0" type="line"/>
      <point x="57.0" y="800.0" type="line"/>
    </contour>
    <contour>
      <point x="377.0" y="600.0" type="line"/>
      <point x="57.0" y="190.0" type="line"/>
      <point x="207.0" y="160.0" type="line"/>
      <point x="567.0" y="600.0" type="line"/>
    </contour>
    <contour>
      <point x="397.0" y="0.0" type="line"/>
      <point x="567.0" y="0.0" type="line"/>
      <point x="367.0" y="400.0" type="line"/>
      <point x="237.0" y="340.0" type="line"/>
    </contour>
  </outline>
</glyph>
<glyph name="l" format="2">
  <advance width="264"/>
  <unicode hex="006C"/>
  <anchor x="132" y="800" name="top"/>
  <anchor x="132" y="0" name="bottom"/>
  <anchor x="207" y="600" name="caron.alt"/>
  <outline>
    <contour>
      <point x="57" y="0" type="line"/>
      <point x="207" y="0" type="line"/>
      <point x="207" y="800" type="line"/>
      <point x="57" y="800" type="line"/>
    </contour>
  </outline>
</glyph>
<glyph name="m" format="2">
  <advance width="879"/>
  <unicode hex="006D"/>
  <outline>
    <contour>
      <point x="57" y="0" type="line"/>
      <point x="207" y="0" type="line"/>
      <point x="207" y="330" type="line" smooth="yes"/>
      <point x="207" y="405"/>
      <point x="237" y="450"/>
      <point x="287" y="450" type="curve" smooth="yes"/>
      <point x="337" y="450"/>
      <point x="367" y="405"/>
      <point x="367" y="330" type="curve" smooth="yes"/>
      <point x="367" y="0" type="line"/>
      <point x="517" y="0" type="line"/>
      <point x="517" y="370" type="line" smooth="yes"/>
      <point x="517" y="520"/>
      <point x="453" y="610"/>
      <point x="347" y="610" type="curve" smooth="yes"/>
      <point x="282" y="610"/>
      <point x="232" y="569"/>
      <point x="212" y="530" type="curve"/>
      <point x="207" y="530" type="line"/>
      <point x="207" y="600" type="line"/>
      <point x="57" y="600" type="line"/>
    </contour>
    <contour>
      <point x="517" y="330" type="line"/>
      <point x="517" y="405"/>
      <point x="547" y="450"/>
      <point x="597" y="450" type="curve" smooth="yes"/>
      <point x="647" y="450"/>
      <point x="677" y="405"/>
      <point x="677" y="330" type="curve" smooth="yes"/>
      <point x="677" y="0" type="line"/>
      <point x="827" y="0" type="line"/>
      <point x="827" y="370" type="line" smooth="yes"/>
      <point x="827" y="520"/>
      <point x="757" y="610"/>
      <point x="647" y="610" type="curve" smooth="yes"/>
      <point x="572" y="610"/>
      <point x="522" y="570"/>
      <point x="497" y="520" type="curve"/>
      <point x="487" y="520" type="line"/>
      <point x="487" y="330" type="line"/>
    </contour>
  </outline>
</glyph>
<glyph name="o" format="2">
  <advance width="564"/>
  <unicode hex="006F"/>
  <anchor x="282.0" y="600.0" name="top"/>
  <outline>
    <contour>
      <point x="32.0" y="300.0" type="curve" smooth="yes"/>
      <point x="32.0" y="106.0"/>
      <point x="126.0" y="-10.0"/>
      <point x="282.0" y="-10.0" type="curve" smooth="yes"/>
      <point x="438.0" y="-10.0"/>
      <point x="532.0" y="106.0"/>
      <point x="532.0" y="300.0" type="curve" smooth="yes"/>
      <point x="532.0" y="494.0"/>
      <point x="438.0" y="610.0"/>
      <point x="282.0" y="610.0" type="curve" smooth="yes"/>
      <point x="126.0" y="610.0"/>
      <point x="32.0" y="494.0"/>
    </contour>
    <contour>
      <point x="172.0" y="300.0" type="curve" smooth="yes"/>
      <point x="172.0" y="400.0"/>
      <point x="213.0" y="460.0"/>
      <point x="282.0" y="460.0" type="curve" smooth="yes"/>
      <point x="351.0" y="460.0"/>
      <point x="392.0" y="400.0"/>
      <point x="392.0" y="300.0" type="curve" smooth="yes"/>
      <point x="392.0" y="200.0"/>
      <point x="351.0" y="140.0"/>
      <point x="282.0" y="140.0" type="curve" smooth="yes"/>
      <point x="213.0" y="140.0"/>
      <point x="172.0" y="200.0"/>
    </contour>
  </outline>
</glyph>
<glyph name="p" format="2">
  <advance width="594"/>
  <unicode hex="0070"/>
  <outline>
    <contour>
      <point x="352" y="610" type="curve" smooth="yes"/>
      <point x="282" y="610"/>
      <point x="232" y="570"/>
      <point x="212" y="530" type="curve"/>
      <point x="207" y="530" type="line"/>
      <point x="207" y="600" type="line"/>
      <point x="57" y="600" type="line"/>
      <point x="57" y="-200" type="line"/>
      <point x="207" y="-200" type="line"/>
      <point x="207" y="70" type="line"/>
      <point x="212" y="70" type="line"/>
      <point x="232" y="30"/>
      <point x="282" y="-10"/>
      <point x="352" y="-10" type="curve" smooth="yes"/>
      <point x="472" y="-10"/>
      <point x="562" y="106"/>
      <point x="562" y="300" type="curve" smooth="yes"/>
      <point x="562" y="494"/>
      <point x="472" y="610"/>
    </contour>
    <contour>
      <point x="202" y="300" type="curve" smooth="yes"/>
      <point x="202" y="400"/>
      <point x="243" y="460"/>
      <point x="312" y="460" type="curve" smooth="yes"/>
      <point x="381" y="460"/>
      <point x="422" y="400"/>
      <point x="422" y="300" type="curve" smooth="yes"/>
      <point x="422" y="200"/>
      <point x="381" y="140"/>
      <point x="312" y="140" type="curve" smooth="yes"/>
      <point x="243" y="140"/>
      <point x="202" y="200"/>
    </contour>
  </outline>
</glyph>
<glyph name="q" format="2">
  <advance width="594"/>
  <unicode hex="0071"/>
  <outline>
    <contour>
      <point x="242.0" y="610.0" type="curve" smooth="yes"/>
      <point x="122.0" y="610.0"/>
      <point x="32.0" y="494.0"/>
      <point x="32.0" y="300.0" type="curve" smooth="yes"/>
      <point x="32.0" y="106.0"/>
      <point x="122.0" y="-10.0"/>
      <point x="242.0" y="-10.0" type="curve" smooth="yes"/>
      <point x="312.0" y="-10.0"/>
      <point x="362.0" y="30.0"/>
      <point x="382.0" y="70.0" type="curve"/>
      <point x="387.0" y="70.0" type="line"/>
      <point x="387.0" y="-200.0" type="line"/>
      <point x="537.0" y="-200.0" type="line"/>
      <point x="537.0" y="600.0" type="line"/>
      <point x="387.0" y="600.0" type="line"/>
      <point x="387.0" y="530.0" type="line"/>
      <point x="382.0" y="530.0" type="line"/>
      <point x="362.0" y="570.0"/>
      <point x="312.0" y="610.0"/>
    </contour>
    <contour>
      <point x="392.0" y="300.0" type="curve" smooth="yes"/>
      <point x="392.0" y="200.0"/>
      <point x="351.0" y="140.0"/>
      <point x="282.0" y="140.0" type="curve" smooth="yes"/>
      <point x="213.0" y="140.0"/>
      <point x="172.0" y="200.0"/>
      <point x="172.0" y="300.0" type="curve" smooth="yes"/>
      <point x="172.0" y="400.0"/>
      <point x="213.0" y="460.0"/>
      <point x="282.0" y="460.0" type="curve" smooth="yes"/>
      <point x="351.0" y="460.0"/>
      <point x="392.0" y="400.0"/>
    </contour>
  </outline>
</glyph>
<glyph name="r" format="2">
  <advance width="414"/>
  <unicode hex="0072"/>
  <anchor x="237.0" y="600" name="top"/>
  <outline>
    <contour>
      <point x="387.0" y="600.0" type="line"/>
      <point x="357.0" y="600.0" type="line" smooth="yes"/>
      <point x="277.0" y="600.0"/>
      <point x="232.0" y="560.0"/>
      <point x="212.0" y="520.0" type="curve"/>
      <point x="207.0" y="520.0" type="line"/>
      <point x="207.0" y="600.0" type="line"/>
      <point x="57.0" y="600.0" type="line"/>
      <point x="57.0" y="0.0" type="line"/>
      <point x="207.0" y="0.0" type="line"/>
      <point x="207.0" y="300.0" type="line" smooth="yes"/>
      <point x="207.0" y="400.0"/>
      <point x="257.0" y="450.0"/>
      <point x="357.0" y="450.0" type="curve" smooth="yes"/>
      <point x="387.0" y="450.0" type="line"/>
    </contour>
  </outline>
</glyph>
<glyph name="s" format="2">
  <advance width="514"/>
  <unicode hex="0073"/>
  <anchor x="257" y="600" name="top"/>
  <anchor x="257" y="0" name="bottom"/>
  <outline>
    <contour>
      <point x="32" y="185" type="line"/>
      <point x="32" y="75"/>
      <point x="112" y="-10"/>
      <point x="257" y="-10" type="curve" smooth="yes"/>
      <point x="402" y="-10"/>
      <point x="482" y="75"/>
      <point x="482" y="175" type="curve" smooth="yes"/>
      <point x="482" y="275"/>
      <point x="430" y="350"/>
      <point x="270" y="370" type="curve" smooth="yes"/>
      <point x="190" y="380"/>
      <point x="177" y="395"/>
      <point x="177" y="425" type="curve" smooth="yes"/>
      <point x="177" y="455"/>
      <point x="202" y="480"/>
      <point x="257" y="480" type="curve" smooth="yes"/>
      <point x="312" y="480"/>
      <point x="337" y="455"/>
      <point x="337" y="415" type="curve"/>
      <point x="477" y="415" type="line"/>
      <point x="477" y="525"/>
      <point x="402" y="610"/>
      <point x="257" y="610" type="curve" smooth="yes"/>
      <point x="112" y="610"/>
      <point x="37" y="525"/>
      <point x="37" y="425" type="curve" smooth="yes"/>
      <point x="37" y="325"/>
      <point x="84" y="250"/>
      <point x="244" y="230" type="curve" smooth="yes"/>
      <point x="324" y="220"/>
      <point x="342" y="205"/>
      <point x="342" y="175" type="curve" smooth="yes"/>
      <point x="342" y="145"/>
      <point x="312" y="120"/>
      <point x="257" y="120" type="curve" smooth="yes"/>
      <point x="202" y="120"/>
      <point x="172" y="145"/>
      <point x="172" y="185" type="curve"/>
    </contour>
  </outline>
</glyph>
<glyph name="t" format="2">
  <advance width="414"/>
  <unicode hex="0074"/>
  <anchor x="257.0" y="600" name="caron.alt"/>
  <anchor x="257.0" y="0" name="bottom"/>
  <outline>
    <contour>
      <point x="107.0" y="150.0" type="line" smooth="yes"/>
      <point x="107.0" y="50.0"/>
      <point x="157.0" y="0.0"/>
      <point x="257.0" y="0.0" type="curve" smooth="yes"/>
      <point x="377.0" y="0.0" type="line"/>
      <point x="377.0" y="150.0" type="line"/>
      <point x="297.0" y="150.0" type="line" smooth="yes"/>
      <point x="267.0" y="150.0"/>
      <point x="257.0" y="160.0"/>
      <point x="257.0" y="190.0" type="curve" smooth="yes"/>
      <point x="257.0" y="440.0" type="line"/>
      <point x="377.0" y="440.0" type="line"/>
      <point x="377.0" y="590.0" type="line"/>
      <point x="257.0" y="590.0" type="line"/>
      <point x="257.0" y="750.0" type="line"/>
      <point x="107.0" y="750.0" type="line"/>
      <point x="107.0" y="590.0" type="line"/>
      <point x="17.0" y="590.0" type="line"/>
      <point x="17.0" y="440.0" type="line"/>
      <point x="107.0" y="440.0" type="line"/>
    </contour>
  </outline>
</glyph>
<glyph name="u" format="2">
  <advance width="589"/>
  <unicode hex="0075"/>
  <anchor x="292.0" y="600" name="top"/>
  <anchor x="532.0" y="0" name="ogonek"/>
  <outline>
    <contour>
      <point x="532.0" y="600.0" type="line"/>
      <point x="382.0" y="600.0" type="line"/>
      <point x="382.0" y="270.0" type="line" smooth="yes"/>
      <point x="382.0" y="195.0"/>
      <point x="348.0" y="150.0"/>
      <point x="292.0" y="150.0" type="curve" smooth="yes"/>
      <point x="236.0" y="150.0"/>
      <point x="202.0" y="195.0"/>
      <point x="202.0" y="270.0" type="curve" smooth="yes"/>
      <point x="202.0" y="600.0" type="line"/>
      <point x="52.0" y="600.0" type="line"/>
      <point x="52.0" y="230.0" type="line" smooth="yes"/>
      <point x="52.0" y="80.0"/>
      <point x="120.0" y="-10.0"/>
      <point x="232.0" y="-10.0" type="curve" smooth="yes"/>
      <point x="302.0" y="-10.0"/>
      <point x="357.0" y="30.0"/>
      <point x="377.0" y="70.0" type="curve"/>
      <point x="382.0" y="70.0" type="line"/>
      <point x="382.0" y="0.0" type="line"/>
      <point x="532.0" y="0.0" type="line"/>
    </contour>
  </outline>
</glyph>
<glyph name="v" format="2">
  <advance width="554"/>
  <unicode hex="0076"/>
  <outline>
    <contour>
      <point x="284.0" y="180.0" type="line"/>
      <point x="274.0" y="180.0" type="line"/>
      <point x="259.0" y="240.0" type="line"/>
      <point x="167.0" y="600.0" type="line"/>
      <point x="7.0" y="600.0" type="line"/>
      <point x="177.0" y="0.0" type="line"/>
      <point x="377.0" y="0.0" type="line"/>
      <point x="547.0" y="600.0" type="line"/>
      <point x="391.0" y="600.0" type="line"/>
      <point x="299.0" y="240.0" type="line"/>
    </contour>
  </outline>
</glyph>
<glyph name="w" format="2">
  <advance width="784"/>
  <unicode hex="0077"/>
  <anchor x="392.0" y="600" name="top"/>
  <outline>
    <contour>
      <point x="232.0" y="220.0" type="line"/>
      <point x="222.0" y="220.0" type="line"/>
      <point x="212.0" y="280.0" type="line"/>
      <point x="152.0" y="600.0" type="line"/>
      <point x="7.0" y="600.0" type="line"/>
      <point x="142.0" y="0.0" type="line"/>
      <point x="312.0" y="0.0" type="line"/>
      <point x="377.0" y="320.0" type="line"/>
      <point x="387.0" y="380.0" type="line"/>
      <point x="397.0" y="380.0" type="line"/>
      <point x="407.0" y="320.0" type="line"/>
      <point x="472.0" y="0.0" type="line"/>
      <point x="642.0" y="0.0" type="line"/>
      <point x="777.0" y="600.0" type="line"/>
      <point x="632.0" y="600.0" type="line"/>
      <point x="572.0" y="280.0" type="line"/>
      <point x="562.0" y="220.0" type="line"/>
      <point x="552.0" y="220.0" type="line"/>
      <point x="542.0" y="280.0" type="line"/>
      <point x="477.0" y="600.0" type="line"/>
      <point x="307.0" y="600.0" type="line"/>
      <point x="242.0" y="280.0" type="line"/>
    </contour>
  </outline>
</glyph>
<glyph name="x" format="2">
  <advance width="534"/>
  <unicode hex="0078"/>
  <outline>
    <contour>
      <point x="7.0" y="0.0" type="line"/>
      <point x="171.0" y="0.0" type="line"/>
      <point x="306.0" y="300.0" type="line"/>
      <point x="272.0" y="360.0" type="line"/>
      <point x="187.0" y="360.0" type="line"/>
    </contour>
    <contour>
      <point x="237.0" y="200.0" type="line"/>
      <point x="297.0" y="200.0" type="line"/>
      <point x="297.0" y="240.0" type="line"/>
      <point x="237.0" y="240.0" type="line"/>
    </contour>
    <contour>
      <point x="527.0" y="0.0" type="line"/>
      <point x="347.0" y="360.0" type="line"/>
      <point x="252.0" y="360.0" type="line"/>
      <point x="224.0" y="300.0" type="line"/>
      <point x="359.0" y="0.0" type="line"/>
    </contour>
    <contour>
      <point x="297.0" y="420.0" type="line"/>
      <point x="237.0" y="420.0" type="line"/>
      <point x="237.0" y="380.0" type="line"/>
      <point x="297.0" y="380.0" type="line"/>
    </contour>
    <contour>
      <point x="17.0" y="600.0" type="line"/>
      <point x="187.0" y="260.0" type="line"/>
      <point x="282.0" y="260.0" type="line"/>
      <point x="310.0" y="320.0" type="line"/>
      <point x="184.0" y="600.0" type="line"/>
    </contour>
    <contour>
      <point x="354.0" y="600.0" type="line"/>
      <point x="228.0" y="320.0" type="line"/>
      <point x="262.0" y="260.0" type="line"/>
      <point x="347.0" y="260.0" type="line"/>
      <point x="517.0" y="600.0" type="line"/>
    </contour>
  </outline>
</glyph>
<glyph name="y" format="2">
  <advance width="554"/>
  <unicode hex="0079"/>
  <anchor x="277.0" y="600" name="top"/>
  <outline>
    <contour>
      <point x="169.0" y="600.0" type="line"/>
      <point x="7.0" y="600.0" type="line"/>
      <point x="187.0" y="0.0" type="line" smooth="yes"/>
      <point x="190.0" y="-10.0"/>
      <point x="192.0" y="-20.0"/>
      <point x="192.0" y="-30.0" type="curve" smooth="yes"/>
      <point x="192.0" y="-50.0"/>
      <point x="182.0" y="-60.0"/>
      <point x="152.0" y="-60.0" type="curve" smooth="yes"/>
      <point x="87.0" y="-60.0" type="line"/>
      <point x="87.0" y="-200.0" type="line"/>
      <point x="192.0" y="-200.0" type="line" smooth="yes"/>
      <point x="292.0" y="-200.0"/>
      <point x="322.0" y="-150.0"/>
      <point x="352.0" y="-50.0" type="curve" smooth="yes"/>
      <point x="547.0" y="600.0" type="line"/>
      <point x="389.0" y="600.0" type="line"/>
      <point x="297.0" y="240.0" type="line"/>
      <point x="282.0" y="180.0" type="line"/>
      <point x="272.0" y="180.0" type="line"/>
      <point x="257.0" y="240.0" type="line"/>
    </contour>
  </outline>
</glyph>
<glyph name="z" format="2">
  <advance width="484"/>
  <unicode hex="007A"/>
  <anchor x="242.0" y="600" name="top"/>
  <outline>
    <contour>
      <point x="37.0" y="0.0" type="line"/>
      <point x="447.0" y="0.0" type="line"/>
      <point x="447.0" y="150.0" type="line"/>
      <point x="227.0" y="150.0" type="line"/>
      <point x="442.0" y="460.0" type="line"/>
      <point x="442.0" y="600.0" type="line"/>
      <point x="42.0" y="600.0" type="line"/>
      <point x="42.0" y="450.0" type="line"/>
      <point x="252.0" y="450.0" type="line"/>
      <point x="37.0" y="140.0" type="line"/>
    </contour>
  </outline>
</glyph>
<glyph name="braceright" format="2">
  <advance width="400"/>
  <unicode hex="007D"/>
  <outline>
    <contour>
      <point x="270" y="300" type="curve"/>
      <point x="270" y="300" type="line"/>
      <point x="164" y="300"/>
      <point x="110" y="246"/>
      <point x="110" y="140" type="curve" smooth="yes"/>
      <point x="110" y="10" type="line" smooth="yes"/>
      <point x="110" y="-30"/>
      <point x="90" y="-50"/>
      <point x="50" y="-50" type="curve" smooth="yes"/>
      <point x="20" y="-50" type="line"/>
      <point x="20" y="-200" type="line"/>
      <point x="70" y="-200" type="line" smooth="yes"/>
      <point x="190" y="-200"/>
      <point x="250" y="-132"/>
      <point x="250" y="0" type="curve" smooth="yes"/>
      <point x="250" y="160" type="line" smooth="yes"/>
      <point x="250" y="200"/>
      <point x="270" y="220"/>
      <point x="310" y="220" type="curve" smooth="yes"/>
      <point x="340" y="220" type="line"/>
      <point x="340" y="380" type="line"/>
      <point x="310" y="380" type="line" smooth="yes"/>
      <point x="270" y="380"/>
      <point x="250" y="400"/>
      <point x="250" y="440" type="curve" smooth="yes"/>
      <point x="250" y="600" type="line" smooth="yes"/>
      <point x="250" y="732"/>
      <point x="190" y="800"/>
      <point x="70" y="800" type="curve" smooth="yes"/>
      <point x="20" y="800" type="line"/>
      <point x="20" y="650" type="line"/>
      <point x="50" y="650" type="line" smooth="yes"/>
      <point x="90" y="650"/>
      <point x="110" y="630"/>
      <point x="110" y="590" type="curve" smooth="yes"/>
      <point x="110" y="460" type="line" smooth="yes"/>
      <point x="110" y="354"/>
      <point x="164" y="300"/>
    </contour>
    <contour>
      <point x="282" y="280" type="line"/>
      <point x="282" y="320" type="line"/>
      <point x="230" y="320" type="line"/>
      <point x="230" y="280" type="line"/>
    </contour>
  </outline>
</glyph>
<glyph name="asciitilde" format="2">
  <advance width="600"/>
  <unicode hex="007E"/>
  <outline>
    <contour>
      <point x="50" y="280" type="curve" smooth="yes"/>
      <point x="50" y="230" type="line"/>
      <point x="185" y="230" type="line"/>
      <point x="185" y="280" type="line" smooth="yes"/>
      <point x="185" y="310"/>
      <point x="200" y="325"/>
      <point x="225" y="325" type="curve" smooth="yes"/>
      <point x="275" y="325"/>
      <point x="300" y="230"/>
      <point x="410" y="230" type="curve" smooth="yes"/>
      <point x="530" y="230"/>
      <point x="550" y="330"/>
      <point x="550" y="420" type="curve" smooth="yes"/>
      <point x="550" y="470" type="line"/>
      <point x="415" y="470" type="line"/>
      <point x="415" y="420" type="line" smooth="yes"/>
      <point x="415" y="390"/>
      <point x="400" y="375"/>
      <point x="375" y="375" type="curve" smooth="yes"/>
      <point x="325" y="375"/>
      <point x="300" y="470"/>
      <point x="190" y="470" type="curve" smooth="yes"/>
      <point x="70" y="470"/>
      <point x="50" y="370"/>
    </contour>
  </outline>
</glyph>
<glyph name="exclamdown" format="2">
  <advance width="280"/>
  <unicode hex="00A1"/>
  <outline>
    <contour>
      <point x="200" y="360" type="line"/>
      <point x="80" y="360" type="line"/>
      <point x="50" y="-200" type="line"/>
      <point x="230" y="-200" type="line"/>
    </contour>
    <contour>
      <point x="215" y="600" type="line"/>
      <point x="65" y="600" type="line"/>
      <point x="65" y="440" type="line"/>
      <point x="215" y="440" type="line"/>
    </contour>
  </outline>
</glyph>
<glyph name="cent" format="2">
  <advance width="600"/>
  <unicode hex="00A2"/>
  <outline>
    <contour>
      <point x="275" y="-10" type="line"/>
      <point x="325" y="-10" type="line"/>
      <point x="325" y="810" type="line"/>
      <point x="275" y="810" type="line"/>
    </contour>
    <contour>
      <point x="300" y="240" type="curve" smooth="yes"/>
      <point x="237" y="240"/>
      <point x="200" y="300"/>
      <point x="200" y="400" type="curve" smooth="yes"/>
      <point x="200" y="500"/>
      <point x="237" y="560"/>
      <point x="300" y="560" type="curve" smooth="yes"/>
      <point x="350" y="560"/>
      <point x="380" y="530"/>
      <point x="390" y="480" type="curve"/>
      <point x="535" y="480" type="line"/>
      <point x="515" y="625"/>
      <point x="430" y="700"/>
      <point x="300" y="700" type="curve" smooth="yes"/>
      <point x="150" y="700"/>
      <point x="60" y="594"/>
      <point x="60" y="400" type="curve" smooth="yes"/>
      <point x="60" y="206"/>
      <point x="150" y="100"/>
      <point x="300" y="100" type="curve" smooth="yes"/>
      <point x="430" y="100"/>
      <point x="515" y="175"/>
      <point x="535" y="320" type="curve"/>
      <point x="390" y="320" type="line"/>
      <point x="380" y="270"/>
      <point x="350" y="240"/>
    </contour>
  </outline>
</glyph>
<glyph name="ordfeminine" format="2">
  <advance width="410"/>
  <unicode hex="00AA"/>
  <outline>
    <contour>
      <point x="255" y="580" type="curve"/>
      <point x="255" y="546" type="line" smooth="yes"/>
      <point x="255" y="506"/>
      <point x="218" y="480"/>
      <point x="177" y="480" type="curve" smooth="yes"/>
      <point x="150" y="480"/>
      <point x="135" y="493"/>
      <point x="135" y="512" type="curve" smooth="yes"/>
      <point x="135" y="553"/>
      <point x="196" y="560"/>
    </contour>
    <contour>
      <point x="370" y="397" type="line"/>
      <point x="363" y="417"/>
      <point x="360" y="438"/>
      <point x="360" y="458" type="curve" smooth="yes"/>
      <point x="360" y="670" type="line" smooth="yes"/>
      <point x="360" y="764"/>
      <point x="294" y="810"/>
      <point x="204" y="810" type="curve" smooth="yes"/>
      <point x="114" y="810"/>
      <point x="52" y="760"/>
      <point x="45" y="668" type="curve"/>
      <point x="145" y="668" type="line"/>
      <point x="148" y="700"/>
      <point x="173" y="720"/>
      <point x="204" y="720" type="curve" smooth="yes"/>
      <point x="238" y="720"/>
      <point x="255" y="700"/>
      <point x="255" y="680" type="curve" smooth="yes"/>
      <point x="255" y="626"/>
      <point x="35" y="653"/>
      <point x="35" y="505" type="curve" smooth="yes"/>
      <point x="35" y="431"/>
      <point x="82" y="390"/>
      <point x="150" y="390" type="curve" smooth="yes"/>
      <point x="198" y="390"/>
      <point x="230" y="415"/>
      <point x="248" y="445" type="curve"/>
      <point x="255" y="445" type="line"/>
      <point x="255" y="430"/>
      <point x="257" y="412"/>
      <point x="262" y="397" type="curve"/>
    </contour>
  </outline>
</glyph>
<glyph name="guillemetleft" format="2">
  <advance width="750"/>
  <unicode hex="00AB"/>
  <outline>
    <contour>
      <point x="350" y="580" type="line"/>
      <point x="50" y="380" type="line"/>
      <point x="50" y="232" type="line"/>
      <point x="350" y="422" type="line"/>
    </contour>
    <contour>
      <point x="350" y="182" type="line"/>
      <point x="50" y="372" type="line"/>
      <point x="50" y="220" type="line"/>
      <point x="350" y="20" type="line"/>
    </contour>
    <contour>
      <point x="700" y="580" type="line"/>
      <point x="400" y="380" type="line"/>
      <point x="400" y="232" type="line"/>
      <point x="700" y="422" type="line"/>
    </contour>
    <contour>
      <point x="700" y="182" type="line"/>
      <point x="400" y="372" type="line"/>
      <point x="400" y="220" type="line"/>
      <point x="700" y="20" type="line"/>
    </contour>
  </outline>
</glyph>
<glyph name="registered" format="2">
  <advance width="800"/>
  <unicode hex="00AE"/>
  <outline>
    <contour>
      <point x="360" y="420" type="line"/>
      <point x="360" y="510" type="line"/>
      <point x="410" y="510" type="line" smooth="yes"/>
      <point x="440" y="510"/>
      <point x="460" y="495"/>
      <point x="460" y="465" type="curve" smooth="yes"/>
      <point x="460" y="435"/>
      <point x="440" y="420"/>
      <point x="410" y="420" type="curve" smooth="yes"/>
    </contour>
    <contour>
      <point x="410" y="360" type="line"/>
      <point x="510" y="360"/>
      <point x="560" y="400"/>
      <point x="560" y="480" type="curve" smooth="yes"/>
      <point x="560" y="560"/>
      <point x="510" y="600"/>
      <point x="410" y="600" type="curve" smooth="yes"/>
      <point x="260" y="600" type="line"/>
      <point x="260" y="200" type="line"/>
      <point x="360" y="200" type="line"/>
      <point x="360" y="330" type="line"/>
      <point x="400.0" y="330.0" type="line" smooth="yes"/>
      <point x="440" y="330"/>
      <point x="450" y="320"/>
      <point x="450" y="290" type="curve" smooth="yes"/>
      <point x="450" y="250" type="line" smooth="yes"/>
      <point x="450" y="234"/>
      <point x="452" y="216"/>
      <point x="458" y="200" type="curve"/>
      <point x="560" y="200" type="line"/>
      <point x="554" y="216"/>
      <point x="550" y="234"/>
      <point x="550" y="250" type="curve" smooth="yes"/>
      <point x="550" y="290" type="line" smooth="yes"/>
      <point x="550" y="362"/>
      <point x="500" y="400"/>
      <point x="410" y="400" type="curve"/>
    </contour>
    <contour>
      <point x="400" y="-10" type="curve" smooth="yes"/>
      <point x="610" y="-10"/>
      <point x="750" y="154"/>
      <point x="750" y="400" type="curve" smooth="yes"/>
      <point x="750" y="646"/>
      <point x="610" y="810"/>
      <point x="400" y="810" type="curve" smooth="yes"/>
      <point x="190" y="810"/>
      <point x="50" y="646"/>
      <point x="50" y="400" type="curve" smooth="yes"/>
      <point x="50" y="154"/>
      <point x="190" y="-10"/>
    </contour>
    <contour>
      <point x="400" y="100" type="curve" smooth="yes"/>
      <point x="250" y="100"/>
      <point x="150" y="220"/>
      <point x="150" y="400" type="curve" smooth="yes"/>
      <point x="150" y="580"/>
      <point x="250" y="700"/>
      <point x="400" y="700" type="curve" smooth="yes"/>
      <point x="550" y="700"/>
      <point x="650" y="580"/>
      <point x="650" y="400" type="curve" smooth="yes"/>
      <point x="650" y="220"/>
      <point x="550" y="100"/>
    </contour>
  </outline>
</glyph>
<glyph name="degree" format="2">
  <advance width="410"/>
  <unicode hex="00B0"/>
  <outline>
    <contour>
      <point x="200" y="490" type="curve" smooth="yes"/>
      <point x="295" y="490"/>
      <point x="355" y="560"/>
      <point x="355" y="650" type="curve" smooth="yes"/>
      <point x="355" y="740"/>
      <point x="295" y="810"/>
      <point x="200" y="810" type="curve" smooth="yes"/>
      <point x="105" y="810"/>
      <point x="45" y="740"/>
      <point x="45" y="650" type="curve" smooth="yes"/>
      <point x="45" y="560"/>
      <point x="105" y="490"/>
    </contour>
    <contour>
      <point x="200" y="585" type="curve" smooth="yes"/>
      <point x="162" y="585"/>
      <point x="135" y="612"/>
      <point x="135" y="650" type="curve" smooth="yes"/>
      <point x="135" y="688"/>
      <point x="162" y="715"/>
      <point x="200" y="715" type="curve" smooth="yes"/>
      <point x="238" y="715"/>
      <point x="265" y="688"/>
      <point x="265" y="650" type="curve" smooth="yes"/>
      <point x="265" y="612"/>
      <point x="238" y="585"/>
    </contour>
  </outline>
</glyph>
<glyph name="AE" format="2">
  <advance width="939"/>
  <unicode hex="00C6"/>
  <outline>
    <contour>
      <point x="192" y="160" type="line"/>
      <point x="484" y="160" type="line"/>
      <point x="484" y="320" type="line"/>
      <point x="192" y="320" type="line"/>
    </contour>
    <contour>
      <point x="7" y="0" type="line"/>
      <point x="163" y="0" type="line"/>
      <point x="333" y="640" type="line"/>
      <point x="447" y="640" type="line"/>
      <point x="447" y="800" type="line"/>
      <point x="227" y="800" type="line"/>
    </contour>
    <contour>
      <point x="427" y="0" type="line"/>
      <point x="907" y="0" type="line"/>
      <point x="907" y="160" type="line"/>
      <point x="577" y="160" type="line"/>
      <point x="577" y="324" type="line"/>
      <point x="871" y="324" type="line"/>
      <point x="871" y="484" type="line"/>
      <point x="577" y="484" type="line"/>
      <point x="577" y="640" type="line"/>
      <point x="895" y="640" type="line"/>
      <point x="895" y="800" type="line"/>
      <point x="427" y="800" type="line"/>
    </contour>
  </outline>
</glyph>
<glyph name="Thorn" format="2">
  <advance width="619"/>
  <unicode hex="00DE"/>
  <outline>
    <contour>
      <point x="217" y="310" type="line"/>
      <point x="217" y="510" type="line"/>
      <point x="312" y="510" type="line" smooth="yes"/>
      <point x="402" y="510"/>
      <point x="447" y="476"/>
      <point x="447" y="410" type="curve" smooth="yes"/>
      <point x="447" y="344"/>
      <point x="402" y="310"/>
      <point x="312" y="310" type="curve" smooth="yes"/>
    </contour>
    <contour>
      <point x="67" y="0" type="line"/>
      <point x="217" y="0" type="line"/>
      <point x="217" y="150" type="line"/>
      <point x="312" y="150" type="line" smooth="yes"/>
      <point x="497" y="150"/>
      <point x="592" y="238"/>
      <point x="592" y="410" type="curve" smooth="yes"/>
      <point x="592" y="582"/>
      <point x="497" y="670"/>
      <point x="312" y="670" type="curve" smooth="yes"/>
      <point x="217" y="670" type="line"/>
      <point x="217" y="800" type="line"/>
      <point x="67" y="800" type="line"/>
    </contour>
  </outline>
</glyph>
<glyph name="germandbls" format="2">
  <advance width="624"/>
  <unicode hex="00DF"/>
  <outline>
    <contour>
      <point x="207" y="550" type="line" smooth="yes"/>
      <point x="207" y="616"/>
      <point x="251" y="660"/>
      <point x="317" y="660" type="curve" smooth="yes"/>
      <point x="397" y="660"/>
      <point x="437" y="623"/>
      <point x="437" y="570" type="curve" smooth="yes"/>
      <point x="437" y="517"/>
      <point x="397" y="480"/>
      <point x="317" y="480" type="curve" smooth="yes"/>
      <point x="287" y="480" type="line"/>
      <point x="287" y="340" type="line"/>
      <point x="327" y="340" type="line" smooth="yes"/>
      <point x="407" y="340"/>
      <point x="447" y="310"/>
      <point x="447" y="250" type="curve" smooth="yes"/>
      <point x="447" y="190"/>
      <point x="407" y="150"/>
      <point x="327" y="150" type="curve" smooth="yes"/>
      <point x="287" y="150" type="line"/>
      <point x="287" y="0" type="line"/>
      <point x="327" y="0" type="line" smooth="yes"/>
      <point x="497" y="0"/>
      <point x="592" y="80"/>
      <point x="592" y="230" type="curve" smooth="yes"/>
      <point x="592" y="370"/>
      <point x="497" y="450"/>
      <point x="317" y="450" type="curve"/>
      <point x="317" y="370" type="line"/>
      <point x="487" y="370"/>
      <point x="582" y="450"/>
      <point x="582" y="580" type="curve" smooth="yes"/>
      <point x="582" y="720"/>
      <point x="487" y="810"/>
      <point x="317" y="810" type="curve" smooth="yes"/>
      <point x="147" y="810"/>
      <point x="57" y="720"/>
      <point x="57" y="550" type="curve" smooth="yes"/>
      <point x="57" y="0" type="line"/>
      <point x="207" y="0" type="line"/>
    </contour>
  </outline>
</glyph>
<glyph name="ae" format="2">
  <advance width="904"/>
  <unicode hex="00E6"/>
  <outline>
    <contour>
      <point x="357" y="270" type="curve"/>
      <point x="357" y="170"/>
      <point x="307" y="120"/>
      <point x="247" y="120" type="curve" smooth="yes"/>
      <point x="197" y="120"/>
      <point x="172" y="140"/>
      <point x="172" y="180" type="curve" smooth="yes"/>
      <point x="172" y="240"/>
      <point x="267" y="240"/>
    </contour>
    <contour>
      <point x="477" y="400" type="line"/>
      <point x="477" y="540"/>
      <point x="392" y="610"/>
      <point x="272" y="610" type="curve" smooth="yes"/>
      <point x="152" y="610"/>
      <point x="57" y="540"/>
      <point x="47" y="400" type="curve"/>
      <point x="187" y="400" type="line"/>
      <point x="192" y="450"/>
      <point x="232" y="480"/>
      <point x="282" y="480" type="curve" smooth="yes"/>
      <point x="332" y="480"/>
      <point x="357" y="450"/>
      <point x="357" y="420" type="curve" smooth="yes"/>
      <point x="357" y="320"/>
      <point x="32" y="410"/>
      <point x="32" y="170" type="curve" smooth="yes"/>
      <point x="32" y="50"/>
      <point x="112" y="-10"/>
      <point x="222" y="-10" type="curve" smooth="yes"/>
      <point x="332" y="-10"/>
      <point x="402" y="50"/>
      <point x="447" y="140" type="curve"/>
    </contour>
    <contour>
      <point x="869" y="240" type="line"/>
      <point x="871" y="260"/>
      <point x="872" y="280"/>
      <point x="872" y="300" type="curve" smooth="yes"/>
      <point x="872" y="494"/>
      <point x="778" y="610"/>
      <point x="632" y="610" type="curve" smooth="yes"/>
      <point x="486" y="610"/>
      <point x="392" y="494"/>
      <point x="392" y="300" type="curve" smooth="yes"/>
      <point x="392" y="106"/>
      <point x="486" y="-10"/>
      <point x="632" y="-10" type="curve" smooth="yes"/>
      <point x="742" y="-10"/>
      <point x="827" y="60"/>
      <point x="857" y="180" type="curve"/>
      <point x="712" y="180" type="line"/>
      <point x="692" y="140"/>
      <point x="662" y="120"/>
      <point x="622" y="120" type="curve" smooth="yes"/>
      <point x="547" y="120"/>
      <point x="507" y="188"/>
      <point x="507" y="300" type="curve" smooth="yes"/>
      <point x="507" y="412"/>
      <point x="547" y="480"/>
      <point x="622" y="480" type="curve" smooth="yes"/>
      <point x="697" y="480"/>
      <point x="737" y="412"/>
      <point x="737" y="300" type="curve"/>
      <point x="802" y="370" type="line"/>
      <point x="467" y="370" type="line"/>
      <point x="467" y="240" type="line"/>
    </contour>
  </outline>
</glyph>
<glyph name="eth" format="2">
  <advance width="564"/>
  <unicode hex="00F0"/>
  <outline>
    <contour>
      <point x="132" y="620" type="line"/>
      <point x="452" y="700" type="line"/>
      <point x="452" y="800" type="line"/>
      <point x="132" y="720" type="line"/>
    </contour>
    <contour>
      <point x="532" y="300" type="curve" smooth="yes"/>
      <point x="532" y="500"/>
      <point x="407" y="700"/>
      <point x="282" y="800" type="curve"/>
      <point x="112" y="800" type="line"/>
      <point x="192" y="740"/>
      <point x="272" y="654"/>
      <point x="322" y="574" type="curve"/>
      <point x="317" y="570" type="line"/>
      <point x="297" y="590"/>
      <point x="267" y="600"/>
      <point x="237" y="600" type="curve" smooth="yes"/>
      <point x="126" y="600"/>
      <point x="32" y="490"/>
      <point x="32" y="300" type="curve" smooth="yes"/>
      <point x="32" y="106"/>
      <point x="126" y="-10"/>
      <point x="282" y="-10" type="curve" smooth="yes"/>
      <point x="438" y="-10"/>
      <point x="532" y="106"/>
    </contour>
    <contour>
      <point x="172" y="300" type="curve" smooth="yes"/>
      <point x="172" y="400"/>
      <point x="213" y="460"/>
      <point x="282" y="460" type="curve" smooth="yes"/>
      <point x="351" y="460"/>
      <point x="392" y="400"/>
      <point x="392" y="300" type="curve" smooth="yes"/>
      <point x="392" y="200"/>
      <point x="351" y="140"/>
      <point x="282" y="140" type="curve" smooth="yes"/>
      <point x="213" y="140"/>
      <point x="172" y="200"/>
    </contour>
  </outline>
</glyph>
<glyph name="divide" format="2">
  <advance width="600"/>
  <unicode hex="00F7"/>
  <outline>
    <contour>
      <point x="540" y="425" type="line"/>
      <point x="60" y="425" type="line"/>
      <point x="60" y="275" type="line"/>
      <point x="540" y="275" type="line"/>
    </contour>
    <contour>
      <point x="240" y="475" type="line"/>
      <point x="360" y="475" type="line"/>
      <point x="360" y="600" type="line"/>
      <point x="240" y="600" type="line"/>
    </contour>
    <contour>
      <point x="240" y="100" type="line"/>
      <point x="360" y="100" type="line"/>
      <point x="360" y="225" type="line"/>
      <point x="240" y="225" type="line"/>
    </contour>
  </outline>
</glyph>
<glyph name="Dcaron" format="2">
  <advance width="679"/>
  <unicode hex="010E"/>
  <outline>
    <contour>
      <point x="67" y="0" type="line"/>
      <point x="327" y="0" type="line" smooth="yes"/>
      <point x="527" y="0"/>
      <point x="642" y="144"/>
      <point x="642" y="400" type="curve" smooth="yes"/>
      <point x="642" y="656"/>
      <point x="527" y="800"/>
      <point x="327" y="800" type="curve" smooth="yes"/>
      <point x="67" y="800" type="line"/>
    </contour>
    <contour>
      <point x="327" y="640" type="line" smooth="yes"/>
      <point x="432" y="640"/>
      <point x="497" y="550"/>
      <point x="497" y="400" type="curve" smooth="yes"/>
      <point x="497" y="250"/>
      <point x="432" y="160"/>
      <point x="327" y="160" type="curve" smooth="yes"/>
      <point x="217" y="160" type="line"/>
      <point x="217" y="640" type="line"/>
    </contour>
    <contour>
      <point x="337" y="800" type="line"/>
      <point x="257" y="920" type="line"/>
      <point x="117" y="920" type="line"/>
      <point x="217" y="800" type="line"/>
    </contour>
    <contour>
      <point x="257" y="800" type="line"/>
      <point x="367" y="788" type="line"/>
      <point x="477" y="920" type="line"/>
      <point x="337" y="920" type="line"/>
    </contour>
  </outline>
</glyph>
<glyph name="gcommaaccent" format="2">
  <advance width="594"/>
  <unicode hex="0123"/>
  <outline>
    <contour>
      <point x="340" y="650" type="line"/>
      <point x="340" y="690"/>
      <point x="365" y="720"/>
      <point x="415" y="720" type="curve"/>
      <point x="415" y="800" type="line"/>
      <point x="315" y="800"/>
      <point x="265" y="750"/>
      <point x="265" y="650" type="curve"/>
    </contour>
    <component base="g"/>
  </outline>
</glyph>
<glyph name="Hbar" format="2">
  <advance width="760"/>
  <unicode hex="0126"/>
  <outline>
    <contour>
      <point x="30" y="580" type="line"/>
      <point x="730" y="580" type="line"/>
      <point x="730" y="700" type="line"/>
      <point x="30" y="700" type="line"/>
    </contour>
    <contour>
      <point x="105" y="0" type="line"/>
      <point x="255" y="0" type="line"/>
      <point x="255" y="324" type="line"/>
      <point x="505" y="324" type="line"/>
      <point x="505" y="0" type="line"/>
      <point x="655" y="0" type="line"/>
      <point x="655" y="800" type="line"/>
      <point x="505" y="800" type="line"/>
      <point x="505" y="484" type="line"/>
      <point x="255" y="484" type="line"/>
      <point x="255" y="800" type="line"/>
      <point x="105" y="800" type="line"/>
    </contour>
  </outline>
</glyph>
<glyph name="oe" format="2">
  <advance width="924"/>
  <unicode hex="0153"/>
  <outline>
    <contour>
      <point x="32" y="300" type="curve" smooth="yes"/>
      <point x="32" y="106"/>
      <point x="126" y="-10"/>
      <point x="272" y="-10" type="curve" smooth="yes"/>
      <point x="418" y="-10"/>
      <point x="512" y="106"/>
      <point x="512" y="300" type="curve" smooth="yes"/>
      <point x="512" y="494"/>
      <point x="418" y="610"/>
      <point x="272" y="610" type="curve" smooth="yes"/>
      <point x="126" y="610"/>
      <point x="32" y="494"/>
    </contour>
    <contour>
      <point x="172" y="300" type="curve" smooth="yes"/>
      <point x="172" y="400"/>
      <point x="213" y="460"/>
      <point x="282" y="460" type="curve" smooth="yes"/>
      <point x="351" y="460"/>
      <point x="392" y="400"/>
      <point x="392" y="300" type="curve" smooth="yes"/>
      <point x="392" y="200"/>
      <point x="351" y="140"/>
      <point x="282" y="140" type="curve" smooth="yes"/>
      <point x="213" y="140"/>
      <point x="172" y="200"/>
    </contour>
    <contour>
      <point x="889" y="240" type="line"/>
      <point x="891" y="260"/>
      <point x="892" y="280"/>
      <point x="892" y="300" type="curve" smooth="yes"/>
      <point x="892" y="494"/>
      <point x="798" y="610"/>
      <point x="652" y="610" type="curve" smooth="yes"/>
      <point x="506" y="610"/>
      <point x="412" y="494"/>
      <point x="412" y="300" type="curve" smooth="yes"/>
      <point x="412" y="106"/>
      <point x="506" y="-10"/>
      <point x="652" y="-10" type="curve" smooth="yes"/>
      <point x="762" y="-10"/>
      <point x="847" y="60"/>
      <point x="877" y="180" type="curve"/>
      <point x="732" y="180" type="line"/>
      <point x="712" y="140"/>
      <point x="682" y="120"/>
      <point x="642" y="120" type="curve" smooth="yes"/>
      <point x="567" y="120"/>
      <point x="527" y="188"/>
      <point x="527" y="300" type="curve" smooth="yes"/>
      <point x="527" y="412"/>
      <point x="567" y="480"/>
      <point x="642" y="480" type="curve" smooth="yes"/>
      <point x="717" y="480"/>
      <point x="757" y="412"/>
      <point x="757" y="300" type="curve"/>
      <point x="822" y="370" type="line"/>
      <point x="487" y="370" type="line"/>
      <point x="487" y="240" type="line"/>
    </contour>
  </outline>
</glyph>
<glyph name="ringcomb" format="2">
  <advance width="0"/>
  <unicode hex="030A"/>
  <anchor x="0" y="600" name="_top"/>
  <outline>
    <contour>
      <point x="0" y="655" type="curve" smooth="yes"/>
      <point x="78" y="655"/>
      <point x="130" y="702"/>
      <point x="130" y="780" type="curve" smooth="yes"/>
      <point x="130" y="858"/>
      <point x="78" y="905"/>
      <point x="0" y="905" type="curve" smooth="yes"/>
      <point x="-78" y="905"/>
      <point x="-130" y="858"/>
      <point x="-130" y="780" type="curve" smooth="yes"/>
      <point x="-130" y="702"/>
      <point x="-78" y="655"/>
    </contour>
    <contour>
      <point x="0" y="720" type="curve" smooth="yes"/>
      <point x="-36" y="720"/>
      <point x="-60" y="744"/>
      <point x="-60" y="780" type="curve" smooth="yes"/>
      <point x="-60" y="816"/>
      <point x="-36" y="840"/>
      <point x="0" y="840" type="curve" smooth="yes"/>
      <point x="36" y="840"/>
      <point x="60" y="816"/>
      <point x="60" y="780" type="curve" smooth="yes"/>
      <point x="60" y="744"/>
      <point x="36" y="720"/>
    </contour>
  </outline>
</glyph>
<glyph name="cedillacomb" format="2">
  <advance width="0"/>
  <unicode hex="0327"/>
  <anchor x="0" y="0" name="_bottom"/>
  <outline>
    <contour>
      <point x="60" y="0" type="line"/>
      <point x="-50" y="0" type="line"/>
      <point x="-100" y="-150" type="line"/>
      <point x="50" y="-150" type="line"/>
    </contour>
  </outline>
</glyph>
<glyph name="ogonekcomb" format="2">
  <advance width="0"/>
  <unicode hex="0328"/>
  <anchor x="0" y="0" name="_ogonek"/>
  <outline>
    <contour>
      <point x="-175" y="-100" type="curve" smooth="yes"/>
      <point x="-175" y="-160"/>
      <point x="-120" y="-200"/>
      <point x="0" y="-200" type="curve"/>
      <point x="0" y="-120" type="line"/>
      <point x="-50" y="-120"/>
      <point x="-80" y="-110"/>
      <point x="-80" y="-80" type="curve" smooth="yes"/>
      <point x="-80" y="-50"/>
      <point x="-40" y="-30"/>
      <point x="0" y="0" type="curve"/>
      <point x="-110" y="0" type="line"/>
      <point x="-110" y="-5" type="line"/>
      <point x="-150" y="-35"/>
      <point x="-175" y="-60"/>
    </contour>
  </outline>
</glyph>
<glyph name="quoteleft" format="2">
  <advance width="270"/>
  <unicode hex="2018"/>
  <outline>
    <contour>
      <point x="210" y="620" type="line"/>
      <point x="140" y="620" type="line"/>
      <point x="140" y="640" type="line" smooth="yes"/>
      <point x="140" y="690"/>
      <point x="160" y="720"/>
      <point x="210" y="720" type="curve"/>
      <point x="210" y="800" type="line"/>
      <point x="110" y="800"/>
      <point x="60" y="740"/>
      <point x="60" y="640" type="curve" smooth="yes"/>
      <point x="60" y="460" type="line"/>
      <point x="210" y="460" type="line"/>
    </contour>
  </outline>
</glyph>
<glyph name="quotedblleft" format="2">
  <advance width="480"/>
  <unicode hex="201C"/>
  <outline>
    <contour>
      <point x="210" y="620" type="line"/>
      <point x="140" y="620" type="line"/>
      <point x="140" y="640" type="line" smooth="yes"/>
      <point x="140" y="690"/>
      <point x="160" y="720"/>
      <point x="210" y="720" type="curve"/>
      <point x="210" y="800" type="line"/>
      <point x="110" y="800"/>
      <point x="60" y="740"/>
      <point x="60" y="640" type="curve" smooth="yes"/>
      <point x="60" y="460" type="line"/>
      <point x="210" y="460" type="line"/>
    </contour>
    <contour>
      <point x="420" y="620" type="line"/>
      <point x="350" y="620" type="line"/>
      <point x="350" y="640" type="line" smooth="yes"/>
      <point x="350" y="690"/>
      <point x="370" y="720"/>
      <point x="420" y="720" type="curve"/>
      <point x="420" y="800" type="line"/>
      <point x="320" y="800"/>
      <point x="270" y="740"/>
      <point x="270" y="640" type="curve" smooth="yes"/>
      <point x="270" y="460" type="line"/>
      <point x="420" y="460" type="line"/>
    </contour>
  </outline>
</glyph>
<glyph name="bullet" format="2">
  <advance width="400"/>
  <unicode hex="2022"/>
  <outline>
    <contour>
      <point x="200.0" y="290.0" type="curve" smooth="yes"/>
      <point x="255" y="290"/>
      <point x="300" y="330"/>
      <point x="300" y="400" type="curve" smooth="yes"/>
      <point x="300" y="470"/>
      <point x="255" y="510"/>
      <point x="200.0" y="510.0" type="curve" smooth="yes"/>
      <point x="145" y="510"/>
      <point x="100" y="470"/>
      <point x="100" y="400" type="curve" smooth="yes"/>
      <point x="100" y="330"/>
      <point x="145" y="290"/>
    </contour>
  </outline>
</glyph>
<glyph name="minus" format="2">
  <advance width="600"/>
  <unicode hex="2212"/>
  <outline>
    <contour>
      <point x="540" y="425" type="line"/>
      <point x="60" y="425" type="line"/>
      <point x="60" y="275" type="line"/>
      <point x="540" y="275" type="line"/>
    </contour>
  </outline>
</glyph>
<glyph name=".notdef" format="2">
  <advance width="690"/>
  <outline>
    <contour>
      <point x="70" y="-200" type="line"/>
      <point x="620" y="-200" type="line"/>
      <point x="620" y="800" type="line"/>
      <point x="70" y="800" type="line"/>
    </contour>
    <contour>
      <point x="210" y="-50" type="line"/>
      <point x="210" y="650" type="line"/>
      <point x="480" y="650" type="line"/>
      <point x="480" y="-50" type="line"/>
    </contour>
  </outline>
</glyph>
<glyph name="acutecomb.cap" format="2">
  <guideline x="-76.0" y="-60.0" angle="90.0" identifier="dGYfE8CVMR"/>
  <anchor x="0.0" y="740.0" name="_top"/>
  <outline>
    <contour>
      <point x="-75" y="800" type="line"/>
      <point x="75" y="800" type="line"/>
      <point x="170.0" y="920.0" type="line"/>
      <point x="-10.0" y="920.0" type="line"/>
    </contour>
  </outline>
</glyph>
<glyph name="brevecomb.cap" format="2">
  <advance width="0"/>
  <anchor x="0" y="740" name="_top"/>
  <outline>
    <contour>
      <point x="0" y="770" type="curve" smooth="yes"/>
      <point x="120" y="770"/>
      <point x="180" y="840"/>
      <point x="180" y="920" type="curve"/>
      <point x="70" y="920" type="line"/>
      <point x="70" y="880"/>
      <point x="40" y="860"/>
      <point x="0" y="860" type="curve" smooth="yes"/>
      <point x="-40" y="860"/>
      <point x="-70" y="880"/>
      <point x="-70" y="920" type="curve"/>
      <point x="-180" y="920" type="line"/>
      <point x="-180" y="840"/>
      <point x="-120" y="770"/>
    </contour>
  </outline>
</glyph>
<glyph name="circumflexcomb.cap" format="2">
  <advance width="0"/>
  <anchor x="0" y="740" name="_top"/>
  <outline>
    <contour>
      <point x="40" y="920" type="line"/>
      <point x="-80" y="920" type="line"/>
      <point x="-180" y="800" type="line"/>
      <point x="-40" y="800" type="line"/>
    </contour>
    <contour>
      <point x="-40" y="920" type="line"/>
      <point x="40" y="800" type="line"/>
      <point x="180" y="800" type="line"/>
      <point x="80" y="920" type="line"/>
    </contour>
  </outline>
</glyph>
<glyph name="circumflexcomb" format="2">
  <anchor x="0.0" y="600" name="_top"/>
  <outline>
    <contour>
      <point x="30" y="800" type="line"/>
      <point x="-100" y="800" type="line"/>
      <point x="-190" y="660" type="line"/>
      <point x="-40" y="660" type="line"/>
    </contour>
    <contour>
      <point x="-30" y="800" type="line"/>
      <point x="40" y="660" type="line"/>
      <point x="190" y="660" type="line"/>
      <point x="100" y="800" type="line"/>
    </contour>
  </outline>
</glyph>
<glyph name="commaaccentcomb" format="2">
  <anchor x="0.0" y="0" name="_bottom"/>
  <outline>
    <contour>
      <point x="-30" y="0" type="line"/>
      <point x="-30" y="-40"/>
      <point x="-55" y="-70"/>
      <point x="-105" y="-70" type="curve"/>
      <point x="-105" y="-150" type="line"/>
      <point x="-5" y="-150"/>
      <point x="45" y="-100"/>
      <point x="45" y="0" type="curve"/>
    </contour>
  </outline>
</glyph>
<glyph name="dieresiscomb.cap" format="2">
  <anchor x="0.0" y="740.0" name="_top"/>
  <outline>
    <contour>
      <point x="-180.0" y="800.0" type="line"/>
      <point x="-40.0" y="800.0" type="line"/>
      <point x="-40.0" y="920.0" type="line"/>
      <point x="-180.0" y="920.0" type="line"/>
    </contour>
    <contour>
      <point x="40.0" y="800.0" type="line"/>
      <point x="180.0" y="800.0" type="line"/>
      <point x="180.0" y="920.0" type="line"/>
      <point x="40.0" y="920.0" type="line"/>
    </contour>
  </outline>
</glyph>
<glyph name="dotaccentcomb.cap" format="2">
  <anchor x="0.0" y="740.0" name="_top"/>
  <outline>
    <contour>
      <point x="-75.0" y="800.0" type="line"/>
      <point x="75.0" y="800.0" type="line"/>
      <point x="75.0" y="920.0" type="line"/>
      <point x="-75.0" y="920.0" type="line"/>
    </contour>
  </outline>
</glyph>
<glyph name="f.short" format="2">
  <advance width="404"/>
  <outline>
    <contour>
      <point x="257" y="0" type="line"/>
      <point x="257" y="440" type="line"/>
      <point x="377" y="440" type="line"/>
      <point x="377" y="590" type="line"/>
      <point x="257" y="590" type="line"/>
      <point x="257" y="620" type="line" smooth="yes"/>
      <point x="257" y="650"/>
      <point x="267" y="660"/>
      <point x="297" y="660" type="curve" smooth="yes"/>
      <point x="377" y="660" type="line"/>
      <point x="377" y="800" type="line"/>
      <point x="257" y="800" type="line" smooth="yes"/>
      <point x="157" y="800"/>
      <point x="107" y="750"/>
      <point x="107" y="650" type="curve" smooth="yes"/>
      <point x="107" y="590" type="line"/>
      <point x="27" y="590" type="line"/>
      <point x="27" y="440" type="line"/>
      <point x="107" y="440" type="line"/>
      <point x="107" y="0" type="line"/>
    </contour>
  </outline>
</glyph>
<glyph name="five.tab" format="2">
  <advance width="600"/>
  <outline>
    <contour>
      <point x="305" y="-10" type="curve" smooth="yes"/>
      <point x="461" y="-10"/>
      <point x="560" y="90"/>
      <point x="560" y="270" type="curve" smooth="yes"/>
      <point x="560" y="450"/>
      <point x="470" y="550"/>
      <point x="345" y="550" type="curve" smooth="yes"/>
      <point x="300" y="550"/>
      <point x="265" y="535"/>
      <point x="240" y="510" type="curve"/>
      <point x="230" y="510" type="line"/>
      <point x="250" y="640" type="line"/>
      <point x="535" y="640" type="line"/>
      <point x="535" y="800" type="line"/>
      <point x="120" y="800" type="line"/>
      <point x="60" y="340" type="line"/>
      <point x="210" y="340" type="line"/>
      <point x="228" y="376"/>
      <point x="265" y="390"/>
      <point x="305" y="390" type="curve" smooth="yes"/>
      <point x="365" y="390"/>
      <point x="410" y="360"/>
      <point x="410" y="270" type="curve" smooth="yes"/>
      <point x="410" y="180"/>
      <point x="365" y="150"/>
      <point x="305" y="150" type="curve" smooth="yes"/>
      <point x="245" y="150"/>
      <point x="200" y="180"/>
      <point x="200" y="250" type="curve"/>
      <point x="50" y="250" type="line"/>
      <point x="50" y="90"/>
      <point x="149" y="-10"/>
    </contour>
  </outline>
</glyph>
<glyph name="gravecomb" format="2">
  <anchor x="0.0" y="600" name="_top"/>
  <outline>
    <contour>
      <point x="70" y="660" type="line"/>
      <point x="0" y="800" type="line"/>
      <point x="-170" y="800" type="line"/>
      <point x="-60" y="660" type="line"/>
    </contour>
  </outline>
</glyph>
<glyph name="hungarumlautcomb.cap" format="2">
  <anchor x="0.0" y="740.0" name="_top"/>
  <outline>
    <contour>
      <point x="-170.0" y="800.0" type="line"/>
      <point x="-50.0" y="800.0" type="line"/>
      <point x="30.0" y="920.0" type="line"/>
      <point x="-130.0" y="920.0" type="line"/>
    </contour>
    <contour>
      <point x="30.0" y="800.0" type="line"/>
      <point x="160.0" y="800.0" type="line"/>
      <point x="270.0" y="920.0" type="line"/>
      <point x="100.0" y="920.0" type="line"/>
    </contour>
  </outline>
</glyph>
<glyph name="hungarumlautcomb" format="2">
  <anchor x="0.0" y="600" name="_top"/>
  <outline>
    <contour>
      <point x="-170" y="660" type="line"/>
      <point x="-50" y="660" type="line"/>
      <point x="40" y="800" type="line"/>
      <point x="-120" y="800" type="line"/>
    </contour>
    <contour>
      <point x="30" y="660" type="line"/>
      <point x="160" y="660" type="line"/>
      <point x="290" y="800" type="line"/>
      <point x="120" y="800" type="line"/>
    </contour>
  </outline>
</glyph>
<glyph name="macroncomb" format="2">
  <anchor x="0.0" y="600" name="_top"/>
  <outline>
    <contour>
      <point x="-160" y="675" type="line"/>
      <point x="160" y="675" type="line"/>
      <point x="160" y="785" type="line"/>
      <point x="-160" y="785" type="line"/>
    </contour>
  </outline>
</glyph>
<glyph name="nine.tab" format="2">
  <advance width="600"/>
  <outline>
    <contour>
      <point x="290" y="650" type="curve" smooth="yes"/>
      <point x="360" y="650"/>
      <point x="400" y="600"/>
      <point x="400" y="530" type="curve" smooth="yes"/>
      <point x="400" y="460"/>
      <point x="360" y="410"/>
      <point x="290" y="410" type="curve" smooth="yes"/>
      <point x="220" y="410"/>
      <point x="180" y="460"/>
      <point x="180" y="530" type="curve" smooth="yes"/>
      <point x="180" y="600"/>
      <point x="220" y="650"/>
    </contour>
    <contour>
      <point x="405" y="320" type="line"/>
      <point x="395" y="220"/>
      <point x="360" y="150"/>
      <point x="290" y="150" type="curve" smooth="yes"/>
      <point x="250" y="150"/>
      <point x="215" y="170"/>
      <point x="205" y="220" type="curve"/>
      <point x="55" y="220" type="line"/>
      <point x="67" y="120"/>
      <point x="140" y="-10"/>
      <point x="290" y="-10" type="curve" smooth="yes"/>
      <point x="440" y="-10"/>
      <point x="555" y="130"/>
      <point x="555" y="400" type="curve" smooth="yes"/>
      <point x="555" y="690"/>
      <point x="440" y="810"/>
      <point x="290" y="810" type="curve" smooth="yes"/>
      <point x="140" y="810"/>
      <point x="40" y="690"/>
      <point x="40" y="530" type="curve" smooth="yes"/>
      <point x="40" y="370"/>
      <point x="140" y="260"/>
      <point x="265" y="260" type="curve" smooth="yes"/>
      <point x="315" y="260"/>
      <point x="365" y="280"/>
      <point x="395" y="320" type="curve"/>
    </contour>
  </outline>
</glyph>
<glyph name="periodcentered.loclCAT.case" format="2">
  <advance width="0"/>
  <outline>
    <contour>
      <point x="-200" y="360" type="line"/>
      <point x="-50" y="360" type="line"/>
      <point x="-50" y="520" type="line"/>
      <point x="-200" y="520" type="line"/>
    </contour>
  </outline>
</glyph>
<glyph name="ringcomb.cap" format="2">
  <anchor x="0.0" y="740.0" name="_top"/>
  <outline>
    <contour>
      <point x="0.0" y="735.0" type="curve" smooth="yes"/>
      <point x="78.0" y="735.0"/>
      <point x="130.0" y="782.0"/>
      <point x="130.0" y="860.0" type="curve" smooth="yes"/>
      <point x="130.0" y="938.0"/>
      <point x="78.0" y="985.0"/>
      <point x="0.0" y="985.0" type="curve" smooth="yes"/>
      <point x="-78.0" y="985.0"/>
      <point x="-130.0" y="938.0"/>
      <point x="-130.0" y="860.0" type="curve" smooth="yes"/>
      <point x="-130.0" y="782.0"/>
      <point x="-78.0" y="735.0"/>
    </contour>
    <contour>
      <point x="0.0" y="800.0" type="curve" smooth="yes"/>
      <point x="-36.0" y="800.0"/>
      <point x="-60.0" y="824.0"/>
      <point x="-60.0" y="860.0" type="curve" smooth="yes"/>
      <point x="-60.0" y="896.0"/>
      <point x="-36.0" y="920.0"/>
      <point x="0.0" y="920.0" type="curve" smooth="yes"/>
      <point x="36.0" y="920.0"/>
      <point x="60.0" y="896.0"/>
      <point x="60.0" y="860.0" type="curve" smooth="yes"/>
      <point x="60.0" y="824.0"/>
      <point x="36.0" y="800.0"/>
    </contour>
  </outline>
</glyph>
<glyph name="seven.tab" format="2">
  <advance width="600"/>
  <outline>
    <contour>
      <point x="170" y="0" type="curve"/>
      <point x="330" y="0" type="line"/>
      <point x="330" y="240"/>
      <point x="410" y="460"/>
      <point x="560" y="640" type="curve"/>
      <point x="560" y="800" type="line"/>
      <point x="40" y="800" type="line"/>
      <point x="40" y="640" type="line"/>
      <point x="480" y="640" type="line"/>
      <point x="410" y="640" type="line"/>
      <point x="260" y="460"/>
      <point x="170" y="240"/>
    </contour>
  </outline>
</glyph>
<glyph name="t.short" format="2">
  <advance width="414"/>
  <outline>
    <contour>
      <point x="107" y="150" type="line" smooth="yes"/>
      <point x="107" y="50"/>
      <point x="157" y="0"/>
      <point x="257" y="0" type="curve" smooth="yes"/>
      <point x="377" y="0" type="line"/>
      <point x="377" y="150" type="line"/>
      <point x="297" y="150" type="line" smooth="yes"/>
      <point x="267" y="150"/>
      <point x="257" y="160"/>
      <point x="257" y="190" type="curve" smooth="yes"/>
      <point x="257" y="440" type="line"/>
      <point x="377" y="440" type="line"/>
      <point x="377" y="590" type="line"/>
      <point x="257" y="590" type="line"/>
      <point x="257" y="750" type="line"/>
      <point x="107" y="750" type="line"/>
      <point x="107" y="590" type="line"/>
      <point x="27" y="590" type="line"/>
      <point x="27" y="440" type="line"/>
      <point x="107" y="440" type="line"/>
    </contour>
  </outline>
</glyph>
<glyph name="three.tab" format="2">
  <advance width="600"/>
  <outline>
    <contour>
      <point x="200" y="560" type="line"/>
      <point x="200" y="623"/>
      <point x="243" y="650"/>
      <point x="295" y="650" type="curve" smooth="yes"/>
      <point x="347" y="650"/>
      <point x="390" y="623"/>
      <point x="390" y="570" type="curve" smooth="yes"/>
      <point x="390" y="517"/>
      <point x="347" y="490"/>
      <point x="295" y="490" type="curve" smooth="yes"/>
      <point x="215" y="490" type="line"/>
      <point x="215" y="330" type="line"/>
      <point x="295" y="330" type="line" smooth="yes"/>
      <point x="362" y="330"/>
      <point x="400" y="294"/>
      <point x="400" y="240" type="curve" smooth="yes"/>
      <point x="400" y="186"/>
      <point x="362" y="150"/>
      <point x="295" y="150" type="curve" smooth="yes"/>
      <point x="228" y="150"/>
      <point x="190" y="186"/>
      <point x="190" y="250" type="curve"/>
      <point x="40" y="250" type="line"/>
      <point x="40" y="86"/>
      <point x="139" y="-10"/>
      <point x="295" y="-10" type="curve" smooth="yes"/>
      <point x="451" y="-10"/>
      <point x="550" y="86"/>
      <point x="550" y="230" type="curve" smooth="yes"/>
      <point x="550" y="368"/>
      <point x="451" y="460"/>
      <point x="295" y="460" type="curve"/>
      <point x="295" y="360" type="line"/>
      <point x="439" y="360"/>
      <point x="535" y="448"/>
      <point x="535" y="580" type="curve" smooth="yes"/>
      <point x="535" y="720"/>
      <point x="439" y="810"/>
      <point x="295" y="810" type="curve" smooth="yes"/>
      <point x="151" y="810"/>
      <point x="55" y="720"/>
      <point x="55" y="560" type="curve"/>
    </contour>
  </outline>
</glyph>
<glyph name="tildecomb.cap" format="2">
  <anchor x="0.0" y="740.0" name="_top"/>
  <outline>
    <contour>
      <point x="-180.0" y="800.0" type="curve"/>
      <point x="-80.0" y="800.0" type="line"/>
      <point x="-80.0" y="830.0"/>
      <point x="-70.0" y="840.0"/>
      <point x="-50.0" y="840.0" type="curve" smooth="yes"/>
      <point x="-10.0" y="840.0"/>
      <point x="10.0" y="795.0"/>
      <point x="80.0" y="795.0" type="curve" smooth="yes"/>
      <point x="160.0" y="795.0"/>
      <point x="180.0" y="860.0"/>
      <point x="180.0" y="920.0" type="curve"/>
      <point x="80.0" y="920.0" type="line"/>
      <point x="80.0" y="890.0"/>
      <point x="70.0" y="880.0"/>
      <point x="50.0" y="880.0" type="curve" smooth="yes"/>
      <point x="10.0" y="880.0"/>
      <point x="-10.0" y="925.0"/>
      <point x="-80.0" y="925.0" type="curve" smooth="yes"/>
      <point x="-160.0" y="925.0"/>
      <point x="-180.0" y="860.0"/>
    </contour>
  </outline>
</glyph>
<glyph name="tildecomb" format="2">
  <anchor x="0.0" y="600" name="_top"/>
  <outline>
    <contour>
      <point x="-170" y="690" type="curve" smooth="yes"/>
      <point x="-170" y="660" type="line"/>
      <point x="-70" y="660" type="line"/>
      <point x="-70" y="680" type="line" smooth="yes"/>
      <point x="-70" y="700"/>
      <point x="-60" y="710"/>
      <point x="-45" y="710" type="curve" smooth="yes"/>
      <point x="-10" y="710"/>
      <point x="0" y="655"/>
      <point x="70" y="655" type="curve" smooth="yes"/>
      <point x="140" y="655"/>
      <point x="170" y="710"/>
      <point x="170" y="770" type="curve" smooth="yes"/>
      <point x="170" y="800" type="line"/>
      <point x="70" y="800" type="line"/>
      <point x="70" y="780" type="line" smooth="yes"/>
      <point x="70" y="760"/>
      <point x="60" y="750"/>
      <point x="45" y="750" type="curve" smooth="yes"/>
      <point x="10" y="750"/>
      <point x="0" y="805"/>
      <point x="-70" y="805" type="curve" smooth="yes"/>
      <point x="-140" y="805"/>
      <point x="-170" y="750"/>
    </contour>
  </outline>
</glyph>
<glyph name="two.tab" format="2">
  <advance width="600"/>
  <outline>
    <contour>
      <point x="50" y="50" type="curve" smooth="yes"/>
      <point x="50" y="0" type="line"/>
      <point x="550" y="0" type="line"/>
      <point x="550" y="160" type="line"/>
      <point x="153.0" y="160.0" type="line"/>
      <point x="220" y="140" type="line"/>
      <point x="220" y="300"/>
      <point x="545" y="300"/>
      <point x="545" y="550" type="curve" smooth="yes"/>
      <point x="545" y="700"/>
      <point x="450" y="810"/>
      <point x="300" y="810" type="curve" smooth="yes"/>
      <point x="150" y="810"/>
      <point x="50" y="700"/>
      <point x="50" y="520" type="curve"/>
      <point x="200" y="520" type="line"/>
      <point x="200" y="600"/>
      <point x="240" y="645"/>
      <point x="300" y="645" type="curve" smooth="yes"/>
      <point x="360" y="645"/>
      <point x="395" y="610"/>
      <point x="395" y="550" type="curve" smooth="yes"/>
      <point x="395" y="380"/>
      <point x="50" y="420"/>
    </contour>
  </outline>
</glyph>
<glyph name="zero.tab" format="2">
  <advance width="600"/>
  <outline>
    <contour>
      <point x="45" y="400" type="curve" smooth="yes"/>
      <point x="45" y="144"/>
      <point x="136" y="-10"/>
      <point x="300" y="-10" type="curve" smooth="yes"/>
      <point x="464" y="-10"/>
      <point x="555" y="144"/>
      <point x="555" y="400" type="curve" smooth="yes"/>
      <point x="555" y="656"/>
      <point x="464" y="810"/>
      <point x="300" y="810" type="curve" smooth="yes"/>
      <point x="136" y="810"/>
      <point x="45" y="656"/>
    </contour>
    <contour>
      <point x="190" y="400" type="curve" smooth="yes"/>
      <point x="190" y="553"/>
      <point x="227" y="645"/>
      <point x="300" y="645" type="curve" smooth="yes"/>
      <point x="373" y="645"/>
      <point x="410" y="553"/>
      <point x="410" y="400" type="curve" smooth="yes"/>
      <point x="410" y="247"/>
      <point x="373" y="155"/>
      <point x="300" y="155" type="curve" smooth="yes"/>
      <point x="227" y="155"/>
      <point x="190" y="247"/>
    </contour>
  </outline>
</glyph>
